SplineFontDB: 3.0
FontName: Knockout-HTF67-FullBantamwt
FullName: Knockout-HTF67-FullBantamwt
FamilyName: Knockout
Weight: Medium
Copyright: HTF Knockout (c) 1990-7 The Hoefler Type Foundry, Inc. http://www.typography.com
Version: 001.000
ItalicAngle: 0
UnderlinePosition: -133
UnderlineWidth: 20
Ascent: 800
Descent: 200
InvalidEm: 0
sfntRevision: 0x00010000
LayerCount: 2
Layer: 0 0 "Back" 1
Layer: 1 0 "Fore" 0
XUID: [1021 894 -1520301892 10728760]
StyleMap: 0x0040
FSType: 0
OS2Version: 3
OS2_WeightWidthSlopeOnly: 0
OS2_UseTypoMetrics: 0
CreationTime: 1341151914
ModificationTime: 1469547309
PfmFamily: 17
TTFWeight: 500
TTFWidth: 5
LineGap: 90
VLineGap: 0
Panose: 2 0 6 3 0 0 0 0 0 0
OS2TypoAscent: 800
OS2TypoAOffset: 0
OS2TypoDescent: -200
OS2TypoDOffset: 0
OS2TypoLinegap: 90
OS2WinAscent: 834
OS2WinAOffset: 0
OS2WinDescent: 185
OS2WinDOffset: 0
HheadAscent: 834
HheadAOffset: 0
HheadDescent: -185
HheadDOffset: 0
OS2SubXSize: 650
OS2SubYSize: 700
OS2SubXOff: 0
OS2SubYOff: 140
OS2SupXSize: 650
OS2SupYSize: 700
OS2SupXOff: 0
OS2SupYOff: 480
OS2StrikeYSize: 49
OS2StrikeYPos: 258
OS2CapHeight: 666
OS2XHeight: 491
OS2Vendor: 'PfEd'
OS2CodePages: 00000001.00000000
OS2UnicodeRanges: 00000007.00000002.00000000.00000000
DEI: 91125
LangName: 1033 "" "" "" "FontXChange 3.1.2:Knockout-HTF67-FullBantamwt:202738416"
Encoding: UnicodeBmp
UnicodeInterp: none
NameList: AGL For New Fonts
DisplaySize: -48
AntiAlias: 1
FitToEm: 0
WinInfo: 0 28 14
BeginPrivate: 7
BlueValues 31 [-10 0 491 505 666 676 679 680]
BlueScale 9 0.0454545
BlueShift 1 6
StdHW 4 [98]
StdVW 4 [84]
StemSnapH 7 [82 98]
StemSnapV 8 [84 103]
EndPrivate
BeginChars: 65537 218

StartChar: .notdef
Encoding: 65536 -1 0
Width: 500
Flags: MW
HStem: 0 50<100 400 100 450> 483 50<100 400 100 100>
VStem: 50 50<50 50 50 483> 400 50<50 483 483 483>
LayerCount: 2
Fore
SplineSet
50 0 m 1
 50 533 l 1
 450 533 l 1
 450 0 l 1
 50 0 l 1
100 50 m 1
 400 50 l 1
 400 483 l 1
 100 483 l 1
 100 50 l 1
EndSplineSet
Validated: 1
EndChar

StartChar: exclam
Encoding: 33 33 2
Width: 140
Flags: MW
HStem: 0 108<33 106 33 106> 666 20
VStem: 33 84
LayerCount: 2
Fore
SplineSet
113 377 m 1
 84 167 l 1
 56 167 l 1
 27 377 l 1
 27 666 l 1
 113 666 l 1
 113 377 l 1
106 0 m 1
 33 0 l 1
 33 108 l 1
 106 108 l 1
 106 0 l 1
EndSplineSet
Validated: 1
EndChar

StartChar: quotedbl
Encoding: 34 34 3
Width: 184
Flags: MW
HStem: 666 20
LayerCount: 2
Fore
SplineSet
180 666 m 1
 131 467 l 1
 88 467 l 1
 123 666 l 1
 180 666 l 1
94 666 m 1
 54 467 l 1
 13 467 l 1
 37 666 l 1
 94 666 l 1
EndSplineSet
Validated: 1
EndChar

StartChar: numbersign
Encoding: 35 35 4
Width: 390
Flags: MW
HStem: 0 20 195 44<3 86 3 93 143 218 3 136 275 368> 471 44 666 20
LayerCount: 2
Fore
SplineSet
390 427 m 1
 301 427 l 1
 275 239 l 1
 368 239 l 1
 368 195 l 1
 269 195 l 1
 243 0 l 1
 193 0 l 1
 218 195 l 1
 136 195 l 1
 111 0 l 1
 61 0 l 1
 86 195 l 1
 3 195 l 1
 3 239 l 1
 93 239 l 1
 118 427 l 1
 24 427 l 1
 24 471 l 1
 124 471 l 1
 150 666 l 1
 200 666 l 1
 174 471 l 1
 256 471 l 1
 282 666 l 1
 332 666 l 1
 307 471 l 1
 390 471 l 1
 390 427 l 1
250 427 m 1
 168 427 l 1
 143 239 l 1
 225 239 l 1
 250 427 l 1
EndSplineSet
Validated: 1
EndChar

StartChar: dollar
Encoding: 36 36 5
Width: 284
Flags: MW
HStem: -69 151 735 151
VStem: 19 84<129 199 107.5 199> 179 76 179 84
LayerCount: 2
Fore
SplineSet
108 670 m 1xf8
 108 735 l 1
 179 735 l 1
 179 673 l 1
 231 660 264 612 264 537 c 2
 264 464 l 1
 178 464 l 1
 178 547 l 2
 178 572 167 583 150 583 c 0
 133 583 118 572 118 547 c 0
 118 470 139 444 182 369 c 0
 225 294 269 215 269 137 c 0
 269 56 230 8 179 -6 c 1
 179 -69 l 1
 108 -69 l 1
 108 -6 l 1
 51 7 19 55 19 129 c 2
 19 199 l 1
 103 199 l 1
 103 120 l 2
 103 95 115 80 138 80 c 0
 161 80 173 93 173 120 c 0
 173 179 158 223 111 295 c 0
 72 357 21 449 21 526 c 0
 21 595 49 652 108 670 c 1xf8
EndSplineSet
Validated: 8388609
EndChar

StartChar: percent
Encoding: 37 37 6
Width: 437
Flags: MW
HStem: -13 50 273 50 390 50 676 50
VStem: 20 57<425 590 590 599> 125 57<417 425 425 590> 312 57 417 57
LayerCount: 2
Fore
SplineSet
417 73 m 2
 417 20 382 -13 336 -13 c 0
 289 -13 255 20 255 73 c 2
 255 239 l 2
 255 293 289 324 336 324 c 0
 382 324 417 293 417 239 c 2
 417 73 l 2
360 65 m 2
 360 247 l 2
 360 263 350 273 336 273 c 0
 322 273 312 263 312 247 c 2
 312 65 l 2
 312 50 322 39 336 39 c 0
 350 39 360 50 360 65 c 2
396 658 m 1
 73 -19 l 1
 41 6 l 1
 364 683 l 1
 396 658 l 1
182 425 m 2
 182 372 148 339 101 339 c 0
 55 339 20 372 20 425 c 2
 20 590 l 2
 20 644 55 676 101 676 c 0
 148 676 182 644 182 590 c 2
 182 425 l 2
125 417 m 2
 125 599 l 2
 125 614 115 625 101 625 c 0
 88 625 77 614 77 599 c 2
 77 417 l 2
 77 402 88 390 101 390 c 0
 115 390 125 402 125 417 c 2
EndSplineSet
Validated: 1
EndChar

StartChar: ampersand
Encoding: 38 38 7
Width: 405
Flags: MW
HStem: -10 98 676 98
VStem: 22 93 309 84 392 42
LayerCount: 2
Fore
SplineSet
392 104 m 2xf8
 392 27 364 -10 319 -10 c 0
 289 -10 261 10 243 33 c 1
 217 3 185 -10 147 -10 c 0
 74 -10 22 59 22 152 c 0
 22 245 67 319 113 362 c 1
 95 412 79 461 79 512 c 0
 79 619 128 676 205 676 c 0
 275 676 309 618 309 538 c 0
 309 462 277 401 216 339 c 1
 226 300 242 236 255 201 c 1
 269 233 277 299 277 338 c 1
 354 338 l 1
 353 266 333 175 296 112 c 1
 302 96 311 86 324 86 c 0
 338 86 347 100 347 123 c 2
 347 144 l 1
 392 144 l 1
 392 104 l 2xf8
226 535 m 0
 226 563 219 580 200 580 c 0
 182 580 170 559 170 527 c 0
 170 496 177 459 187 425 c 1
 213 458 226 507 226 535 c 0
192 105 m 1
 173 145 155 213 143 261 c 1
 128 241 116 205 116 163 c 0
 116 118 133 89 163 89 c 0
 176 89 185 96 192 105 c 1
EndSplineSet
Validated: 8388609
EndChar

StartChar: quotesingle
Encoding: 39 39 8
Width: 117
Flags: MW
HStem: 666 20
LayerCount: 2
Fore
SplineSet
125 666 m 1
 64 467 l 1
 19 467 l 1
 51 666 l 1
 125 666 l 1
EndSplineSet
Validated: 1
EndChar

StartChar: parenleft
Encoding: 40 40 9
Width: 219
Flags: MW
VStem: 55 76
LayerCount: 2
Fore
SplineSet
211 -110 m 1
 188 -131 l 1
 105 -42 55 86 55 307 c 0
 55 529 105 656 188 745 c 1
 211 724 l 1
 154 641 132 537 132 307 c 0
 132 77 154 -27 211 -110 c 1
EndSplineSet
Validated: 1
EndChar

StartChar: parenright
Encoding: 41 41 10
Width: 219
Flags: MW
VStem: 164 76
LayerCount: 2
Fore
SplineSet
164 307 m 0
 164 86 115 -42 31 -131 c 1
 8 -110 l 1
 66 -27 88 77 88 307 c 0
 88 537 66 641 8 724 c 1
 31 745 l 1
 115 656 164 529 164 307 c 0
EndSplineSet
Validated: 1
EndChar

StartChar: asterisk
Encoding: 42 42 11
Width: 222
Flags: MW
HStem: 466 201
VStem: 93 42
LayerCount: 2
Fore
SplineSet
206 526 m 2
 195 507 l 2
 192 502 186 503 182 506 c 0
 168 513 143 530 124 547 c 1
 129 521 130 492 130 476 c 0
 130 471 129 466 123 466 c 2
 100 466 l 2
 96 466 94 471 94 476 c 0
 94 493 96 520 100 547 c 1
 81 530 55 513 42 505 c 0
 38 503 32 502 29 506 c 2
 18 525 l 2
 15 530 20 535 24 537 c 0
 39 545 63 558 89 567 c 1
 64 575 36 589 23 597 c 0
 20 599 15 603 18 607 c 2
 29 627 l 2
 31 632 37 631 42 628 c 0
 56 620 79 604 100 587 c 1
 95 612 93 644 93 658 c 0
 93 663 95 669 100 669 c 2
 124 669 l 2
 129 669 131 663 131 658 c 0
 131 643 129 613 124 587 c 1
 144 604 168 621 182 629 c 0
 186 631 192 632 195 628 c 2
 206 608 l 2
 209 603 204 599 200 597 c 0
 187 588 160 575 135 567 c 1
 160 559 186 545 200 537 c 0
 204 535 209 530 206 526 c 2
EndSplineSet
Validated: 1
EndChar

StartChar: plus
Encoding: 43 43 12
Width: 261
Flags: MW
HStem: 375 70
VStem: 96 68
LayerCount: 2
Fore
SplineSet
236 304 m 1
 166 304 l 1
 166 229 l 1
 96 229 l 1
 96 304 l 1
 25 304 l 1
 25 375 l 1
 96 375 l 1
 96 449 l 1
 166 449 l 1
 166 375 l 1
 236 375 l 1
 236 304 l 1
EndSplineSet
Validated: 1
EndChar

StartChar: comma
Encoding: 44 44 13
Width: 119
Flags: MW
HStem: -80 20 118 118
VStem: 20 84
LayerCount: 2
Fore
SplineSet
99 10 m 2
 99 -40 67 -80 20 -80 c 1
 20 -55 l 1
 41 -55 57 -39 57 0 c 1
 20 0 l 1
 20 118 l 1
 99 118 l 1
 99 10 l 2
EndSplineSet
Validated: 1
EndChar

StartChar: hyphen
Encoding: 45 45 14
Width: 174
Flags: MW
HStem: 272 76
VStem: 13 148<272 347 272 347>
LayerCount: 2
Fore
SplineSet
161 272 m 1
 13 272 l 1
 13 347 l 1
 161 347 l 1
 161 272 l 1
EndSplineSet
Validated: 1
EndChar

StartChar: period
Encoding: 46 46 15
Width: 119
Flags: MW
HStem: 0 118
VStem: 20 84
LayerCount: 2
Fore
SplineSet
99 0 m 1
 20 0 l 1
 20 117 l 1
 99 117 l 1
 99 0 l 1
EndSplineSet
Validated: 1
EndChar

StartChar: slash
Encoding: 47 47 16
Width: 209
Flags: W
LayerCount: 2
Fore
SplineSet
217 729 m 1
 44 -64 l 1
 -11 -64 l 1
 162 729 l 1
 217 729 l 1
EndSplineSet
Validated: 1
EndChar

StartChar: zero
Encoding: 48 48 17
Width: 298
Flags: MW
HStem: -10 98 676 98
VStem: 27 93 271 93
LayerCount: 2
Fore
SplineSet
271 122 m 2
 271 43 222 -10 149 -10 c 0
 77 -10 27 43 27 122 c 2
 27 544 l 2
 27 623 77 676 149 676 c 0
 222 676 271 623 271 544 c 2
 271 122 l 2
175 115 m 2
 175 551 l 2
 175 566 166 577 149 577 c 0
 133 577 123 566 123 551 c 2
 123 115 l 2
 123 100 133 89 149 89 c 0
 166 89 175 100 175 115 c 2
EndSplineSet
Validated: 1
EndChar

StartChar: one
Encoding: 49 49 18
Width: 193
Flags: MW
HStem: 0 20 666 20
VStem: 48 93
LayerCount: 2
Fore
SplineSet
145 0 m 1
 48 0 l 1
 48 624 l 1
 79 624 90 644 90 666 c 1
 145 666 l 1
 145 0 l 1
EndSplineSet
Validated: 1
EndChar

StartChar: two
Encoding: 50 50 19
Width: 267
Flags: MW
HStem: 0 98 676 98
VStem: 20 84 253 84
LayerCount: 2
Fore
SplineSet
253 534 m 0
 253 439 230 381 176 280 c 1
 129 173 118 136 118 97 c 1
 247 97 l 1
 247 0 l 1
 13 0 l 1
 13 24 l 2
 13 113 27 169 103 330 c 0
 148 420 164 467 164 545 c 0
 164 569 152 579 135 579 c 0
 118 579 108 567 108 545 c 2
 108 454 l 1
 20 454 l 1
 20 549 l 2
 20 614 60 676 133 676 c 0
 220 676 253 615 253 534 c 0
EndSplineSet
Validated: 1
EndChar

StartChar: three
Encoding: 51 51 20
Width: 272
Flags: MW
HStem: -10 98 377 82 676 98
VStem: 17 84 250 93
LayerCount: 2
Fore
SplineSet
250 119 m 2
 250 43 201 -10 129 -10 c 0
 56 -10 17 52 17 116 c 2
 17 195 l 1
 105 195 l 1
 105 120 l 2
 105 101 115 90 131 90 c 0
 146 90 156 101 156 117 c 2
 156 271 l 2
 156 286 148 293 135 293 c 2
 97 293 l 1
 97 377 l 1
 135 377 l 2
 148 377 156 385 156 400 c 2
 156 548 l 2
 156 565 146 576 131 576 c 0
 115 576 105 565 105 546 c 2
 105 470 l 1
 17 470 l 1
 17 549 l 2
 17 614 56 676 129 676 c 0
 201 676 250 622 250 547 c 2
 250 420 l 2
 250 378 230 350 198 337 c 1
 229 322 250 295 250 253 c 2
 250 119 l 2
EndSplineSet
Validated: 1
EndChar

StartChar: four
Encoding: 52 52 21
Width: 270
Flags: MW
HStem: 0 20 132 82 666 20
VStem: 137 93
LayerCount: 2
Fore
SplineSet
260 132 m 1
 227 132 l 1
 227 0 l 1
 137 0 l 1
 137 132 l 1
 8 132 l 1
 8 209 l 1
 150 666 l 1
 227 666 l 1
 227 219 l 1
 260 219 l 1
 260 132 l 1
137 219 m 1
 137 388 l 1
 91 219 l 1
 137 219 l 1
EndSplineSet
Validated: 1
EndChar

StartChar: five
Encoding: 53 53 22
Width: 273
Flags: MW
HStem: -10 98 431 82 568 21G
VStem: 21 84 254 93
LayerCount: 2
Fore
SplineSet
256 666 m 1
 254 596 235 569 202 569 c 2
 121 569 l 1
 114 401 l 1
 130 420 153 431 181 431 c 0
 225 431 254 394 254 342 c 2
 254 119 l 2
 254 43 205 -10 133 -10 c 0
 60 -10 21 52 21 116 c 2
 21 190 l 1
 109 190 l 1
 109 120 l 2
 109 101 120 90 135 90 c 0
 150 90 160 101 160 117 c 2
 160 323 l 2
 160 337 148 348 137 348 c 0
 126 348 114 337 114 325 c 1
 27 334 l 1
 40 666 l 1
 256 666 l 1
EndSplineSet
Validated: 1
EndChar

StartChar: six
Encoding: 54 54 23
Width: 285
Flags: MW
HStem: -10 98 403 82 676 98
VStem: 26 93 172 84
LayerCount: 2
Fore
SplineSet
263 125 m 2
 263 46 217 -10 144 -10 c 0
 72 -10 26 46 26 125 c 2
 26 541 l 2
 26 619 74 676 146 676 c 0
 219 676 259 614 259 549 c 2
 259 468 l 1
 172 468 l 1
 172 546 l 2
 172 565 164 576 147 576 c 0
 130 576 120 565 120 549 c 2
 120 374 l 1
 134 391 155 403 183 403 c 0
 234 403 263 366 263 315 c 2
 263 125 l 2
169 114 m 2
 169 296 l 2
 169 309 160 319 144 319 c 0
 130 319 120 309 120 296 c 2
 120 114 l 2
 120 100 130 90 144 90 c 0
 160 90 169 100 169 114 c 2
EndSplineSet
Validated: 1
EndChar

StartChar: seven
Encoding: 55 55 24
Width: 262
Flags: MW
HStem: 0 20 568 21G
VStem: 41 103
LayerCount: 2
Fore
SplineSet
254 624 m 1
 192 424 156 237 147 0 c 1
 41 0 l 1
 56 216 110 433 159 564 c 1
 18 564 l 1
 18 666 l 1
 254 666 l 1
 254 624 l 1
EndSplineSet
Validated: 1
EndChar

StartChar: eight
Encoding: 56 56 25
Width: 292
Flags: MW
HStem: -10 98 369 70 676 98
VStem: 26 93 266 93
LayerCount: 2
Fore
SplineSet
266 119 m 2
 266 43 219 -10 146 -10 c 0
 74 -10 26 43 26 119 c 2
 26 251 l 2
 26 291 41 320 67 335 c 1
 41 351 26 380 26 419 c 2
 26 547 l 2
 26 622 74 676 146 676 c 0
 219 676 266 622 266 547 c 2
 266 419 l 2
 266 380 251 351 225 335 c 1
 251 320 266 291 266 251 c 2
 266 119 l 2
172 395 m 2
 172 549 l 2
 172 565 161 576 146 576 c 0
 131 576 120 565 120 549 c 2
 120 395 l 2
 120 380 131 369 146 369 c 0
 161 369 172 380 172 395 c 2
172 117 m 2
 172 276 l 2
 172 292 161 302 146 302 c 0
 131 302 120 292 120 276 c 2
 120 117 l 2
 120 101 131 90 146 90 c 0
 161 90 172 101 172 117 c 2
EndSplineSet
Validated: 1
EndChar

StartChar: nine
Encoding: 57 57 26
Width: 290
Flags: MW
HStem: -10 98 257 82<81 152.5> 676 98
VStem: 26 84 264 93
LayerCount: 2
Fore
SplineSet
264 125 m 2
 264 46 214 -10 141 -10 c 0
 69 -10 26 52 26 116 c 2
 26 191 l 1
 112 191 l 1
 112 121 l 2
 112 102 120 90 140 90 c 0
 161 90 169 101 169 118 c 2
 169 287 l 1
 155 271 134 257 106 257 c 0
 56 257 26 296 26 348 c 2
 26 541 l 2
 26 619 72 676 145 676 c 0
 217 676 264 619 264 541 c 2
 264 125 l 2
169 362 m 2
 169 552 l 2
 169 565 160 576 145 576 c 0
 129 576 120 565 120 552 c 2
 120 362 l 2
 120 349 129 339 145 339 c 0
 160 339 169 349 169 362 c 2
EndSplineSet
Validated: 1
EndChar

StartChar: colon
Encoding: 58 58 27
Width: 119
Flags: MW
HStem: 0 118 431 118
VStem: 20 84
LayerCount: 2
Fore
SplineSet
99 314 m 1
 20 314 l 1
 20 431 l 1
 99 431 l 1
 99 314 l 1
99 0 m 1
 20 0 l 1
 20 117 l 1
 99 117 l 1
 99 0 l 1
EndSplineSet
Validated: 1
EndChar

StartChar: semicolon
Encoding: 59 59 28
Width: 119
Flags: MW
HStem: -80 20 0 118<20 57 20 99> 431 118
VStem: 20 84
LayerCount: 2
Fore
SplineSet
99 314 m 1
 20 314 l 1
 20 431 l 1
 99 431 l 1
 99 314 l 1
99 10 m 2
 99 -40 67 -80 20 -80 c 1
 20 -55 l 1
 41 -55 57 -39 57 0 c 1
 20 0 l 1
 20 118 l 1
 99 118 l 1
 99 10 l 2
EndSplineSet
Validated: 1
EndChar

StartChar: less
Encoding: 60 60 29
Width: 382
Flags: W
LayerCount: 2
Fore
SplineSet
315 150 m 1
 51 323 l 1
 51 344 l 1
 315 516 l 1
 315 434 l 1
 163 334 l 1
 315 232 l 1
 315 150 l 1
EndSplineSet
Validated: 1
EndChar

StartChar: equal
Encoding: 61 61 30
Width: 246
Flags: MW
HStem: 237 70 442 70
VStem: 18 213
LayerCount: 2
Fore
SplineSet
229 371 m 1
 18 371 l 1
 18 442 l 1
 229 442 l 1
 229 371 l 1
229 237 m 1
 18 237 l 1
 18 308 l 1
 229 308 l 1
 229 237 l 1
EndSplineSet
Validated: 1
EndChar

StartChar: greater
Encoding: 62 62 31
Width: 382
Flags: W
LayerCount: 2
Fore
SplineSet
331 323 m 1
 68 151 l 1
 68 233 l 1
 220 333 l 1
 68 434 l 1
 68 517 l 1
 331 343 l 1
 331 323 l 1
EndSplineSet
Validated: 1
EndChar

StartChar: question
Encoding: 63 63 32
Width: 255
Flags: MW
HStem: 0 108<73 145 73 145> 676 98
VStem: 12 84<461 539 461 548 461 583> 241 93
LayerCount: 2
Fore
SplineSet
241 532 m 0
 241 472 219 390 175 315 c 0
 150 273 140 218 140 176 c 1
 78 176 l 1
 78 244 87 290 124 398 c 0
 140 446 150 491 150 516 c 0
 150 561 143 576 123 576 c 0
 104 576 96 561 96 539 c 2
 96 461 l 1
 12 461 l 1
 12 548 l 2
 12 618 48 676 124 676 c 0
 208 676 241 615 241 532 c 0
145 0 m 1
 73 0 l 1
 73 108 l 1
 145 108 l 1
 145 0 l 1
EndSplineSet
Validated: 1
EndChar

StartChar: at
Encoding: 64 64 33
Width: 433
Flags: MW
HStem: -10 36 136 50 395 36 546 36
VStem: 16 42 112 57 417 42
LayerCount: 2
Fore
SplineSet
417 309 m 0
 417 214 375 129 299 129 c 0
 259 129 239 151 241 194 c 1
 227 158 198 136 172 136 c 0
 138 136 112 166 112 223 c 0
 112 302 158 395 221 395 c 0
 243 395 260 380 262 354 c 1
 272 391 l 1
 327 391 l 1
 288 230 l 2
 277 189 285 165 310 165 c 0
 350 165 377 225 377 311 c 0
 377 433 311 509 224 509 c 0
 129 509 56 402 56 262 c 0
 56 119 129 28 224 28 c 0
 273 28 312 47 337 73 c 1
 358 46 l 1
 327 13 281 -10 224 -10 c 0
 110 -10 16 89 16 262 c 0
 16 430 110 546 224 546 c 0
 356 546 417 420 417 309 c 0
253 318 m 1
 252 342 246 354 231 354 c 0
 196 354 166 276 166 227 c 0
 166 197 174 181 191 181 c 0
 211 181 226 203 234 241 c 2
 253 318 l 1
EndSplineSet
Validated: 33
EndChar

StartChar: A
Encoding: 65 65 34
Width: 276
Flags: MW
HStem: 0 20 114 98 666 20
LayerCount: 2
Fore
SplineSet
274 0 m 1
 169 0 l 1
 163 114 l 1
 102 114 l 1
 92 0 l 1
 -1 0 l 1
 78 666 l 1
 195 666 l 1
 274 0 l 1
155 209 m 1
 137 485 l 1
 112 209 l 1
 155 209 l 1
EndSplineSet
Validated: 1
EndChar

StartChar: B
Encoding: 66 66 35
Width: 293
Flags: MW
HStem: 0 98 378 82 568 21G
VStem: 26 103<93 293 378 572> 273 103
LayerCount: 2
Fore
SplineSet
273 115 m 2
 273 28 218 0 168 0 c 2
 26 0 l 1
 26 666 l 1
 168 666 l 2
 218 666 273 638 273 551 c 2
 273 420 l 2
 273 384 258 355 224 339 c 1
 258 321 273 295 273 258 c 2
 273 115 l 2
174 407 m 2
 174 544 l 2
 174 564 168 572 155 572 c 2
 129 572 l 1
 129 378 l 1
 155 378 l 2
 168 378 174 387 174 407 c 2
174 121 m 2
 174 264 l 2
 174 284 168 293 155 293 c 2
 129 293 l 1
 129 93 l 1
 155 93 l 2
 168 93 174 101 174 121 c 2
EndSplineSet
Validated: 1
EndChar

StartChar: C
Encoding: 67 67 36
Width: 287
Flags: MW
HStem: -10 98 676 98
VStem: 20 103 272 84
LayerCount: 2
Fore
SplineSet
272 124 m 2
 272 44 229 -10 153 -10 c 0
 79 -10 20 45 20 127 c 2
 20 539 l 2
 20 620 79 676 153 676 c 0
 229 676 272 621 272 542 c 2
 272 428 l 1
 184 428 l 1
 184 545 l 2
 184 563 175 576 154 576 c 0
 133 576 125 563 125 545 c 2
 125 121 l 2
 125 103 133 90 154 90 c 0
 175 90 184 103 184 121 c 2
 184 238 l 1
 272 238 l 1
 272 124 l 2
EndSplineSet
Validated: 1
EndChar

StartChar: D
Encoding: 68 68 37
Width: 304
Flags: MW
HStem: 0 98 568 21G
VStem: 26 103<95 570 95 666 95 666> 283 103
LayerCount: 2
Fore
SplineSet
283 126 m 2
 283 33 225 0 162 0 c 2
 26 0 l 1
 26 666 l 1
 162 666 l 2
 225 666 283 629 283 536 c 2
 283 126 l 2
180 130 m 2
 180 536 l 2
 180 559 171 570 153 570 c 2
 129 570 l 1
 129 95 l 1
 153 95 l 2
 171 95 180 106 180 130 c 2
EndSplineSet
Validated: 1
EndChar

StartChar: E
Encoding: 69 69 38
Width: 255
Flags: MW
HStem: 0 98 388 90 568 21G
VStem: 26 178<297 388 297 666>
LayerCount: 2
Fore
SplineSet
242 0 m 1
 26 0 l 1
 26 666 l 1
 242 666 l 1
 242 570 l 1
 129 570 l 1
 129 388 l 1
 204 388 l 1
 204 297 l 1
 129 297 l 1
 129 99 l 1
 242 99 l 1
 242 0 l 1
EndSplineSet
Validated: 1
EndChar

StartChar: F
Encoding: 70 70 39
Width: 243
Flags: MW
HStem: 0 20 386 98 568 21G
VStem: 26 178
LayerCount: 2
Fore
SplineSet
235 572 m 1
 129 572 l 1
 129 386 l 1
 207 386 l 1
 207 291 l 1
 129 291 l 1
 129 0 l 1
 26 0 l 1
 26 666 l 1
 235 666 l 1
 235 572 l 1
EndSplineSet
Validated: 1
EndChar

StartChar: G
Encoding: 71 71 40
Width: 297
Flags: MW
HStem: -10 98 248 82 676 98
VStem: 20 103<121 545 545 549> 178 103
LayerCount: 2
Fore
SplineSet
279 0 m 1
 219 0 l 1
 208 35 l 1
 194 5 165 -10 135 -10 c 0
 65 -10 20 41 20 121 c 2
 20 545 l 2
 20 617 75 676 149 676 c 0
 223 676 274 617 274 545 c 2
 274 422 l 1
 178 422 l 1
 178 549 l 2
 178 565 169 576 151 576 c 0
 134 576 123 565 123 549 c 2
 123 112 l 2
 123 95 134 83 151 83 c 0
 169 83 179 95 179 112 c 2
 179 248 l 1
 153 248 l 1
 153 328 l 1
 279 328 l 1
 279 0 l 1
EndSplineSet
Validated: 1
EndChar

StartChar: H
Encoding: 72 72 41
Width: 315
Flags: MW
HStem: 0 20 275 98 666 20
VStem: 289 103
LayerCount: 2
Fore
SplineSet
289 0 m 1
 187 0 l 1
 187 275 l 1
 129 275 l 1
 129 0 l 1
 26 0 l 1
 26 666 l 1
 129 666 l 1
 129 377 l 1
 187 377 l 1
 187 666 l 1
 289 666 l 1
 289 0 l 1
EndSplineSet
Validated: 1
EndChar

StartChar: I
Encoding: 73 73 42
Width: 155
Flags: MW
HStem: 0 20 666 20
VStem: 26 103<0 666>
LayerCount: 2
Fore
SplineSet
129 0 m 1
 26 0 l 1
 26 666 l 1
 129 666 l 1
 129 0 l 1
EndSplineSet
Validated: 1
EndChar

StartChar: J
Encoding: 74 74 43
Width: 279
Flags: MW
HStem: -10 98 666 20
VStem: 8 93 257 103
LayerCount: 2
Fore
SplineSet
257 119 m 2
 257 42 205 -10 133 -10 c 0
 61 -10 8 42 8 119 c 2
 8 265 l 1
 104 265 l 1
 104 117 l 2
 104 100 114 90 129 90 c 0
 144 90 154 100 154 117 c 2
 154 666 l 1
 257 666 l 1
 257 119 l 2
EndSplineSet
Validated: 1
EndChar

StartChar: K
Encoding: 75 75 44
Width: 296
Flags: MW
HStem: 0 20 666 20
VStem: 26 103<0 170 373 666>
LayerCount: 2
Fore
SplineSet
293 0 m 1
 189 0 l 1
 151 264 l 1
 129 170 l 1
 129 0 l 1
 26 0 l 1
 26 666 l 1
 129 666 l 1
 129 373 l 1
 189 666 l 1
 288 666 l 1
 222 384 l 1
 293 0 l 1
EndSplineSet
Validated: 1
EndChar

StartChar: L
Encoding: 76 76 45
Width: 240
Flags: MW
HStem: 0 98 666 20
VStem: 26 103<96 666 96 666 96 666>
LayerCount: 2
Fore
SplineSet
236 0 m 1
 26 0 l 1
 26 666 l 1
 129 666 l 1
 129 96 l 1
 236 96 l 1
 236 0 l 1
EndSplineSet
Validated: 1
EndChar

StartChar: M
Encoding: 77 77 46
Width: 416
Flags: MW
HStem: 0 20 666 20
VStem: 26 93 390 103
LayerCount: 2
Fore
SplineSet
390 0 m 1
 291 0 l 1
 291 507 l 1
 277 355 l 1
 234 0 l 1
 166 0 l 1
 128 355 l 1
 116 507 l 1
 116 0 l 1
 26 0 l 1
 26 666 l 1
 161 666 l 1
 197 404 l 1
 211 253 l 1
 224 404 l 1
 257 666 l 1
 390 666 l 1
 390 0 l 1
EndSplineSet
Validated: 1
EndChar

StartChar: N
Encoding: 78 78 47
Width: 321
Flags: MW
HStem: 0 20 666 20
VStem: 25 84 296 84
LayerCount: 2
Fore
SplineSet
296 0 m 1
 211 0 l 1
 136 301 l 1
 113 392 l 1
 113 0 l 1
 25 0 l 1
 25 666 l 1
 123 666 l 1
 189 367 l 1
 209 274 l 1
 209 666 l 1
 296 666 l 1
 296 0 l 1
EndSplineSet
Validated: 1
EndChar

StartChar: O
Encoding: 79 79 48
Width: 303
Flags: MW
HStem: -10 98 676 98
VStem: 21 103 281 103
LayerCount: 2
Fore
SplineSet
281 124 m 2
 281 44 224 -10 151 -10 c 0
 79 -10 21 44 21 124 c 2
 21 542 l 2
 21 621 79 676 151 676 c 0
 224 676 281 621 281 542 c 2
 281 124 l 2
176 117 m 2
 176 549 l 2
 176 566 166 576 151 576 c 0
 136 576 126 566 126 549 c 2
 126 117 l 2
 126 100 136 90 151 90 c 0
 166 90 176 100 176 117 c 2
EndSplineSet
Validated: 1
EndChar

StartChar: P
Encoding: 80 80 49
Width: 288
Flags: MW
HStem: 0 20 259 82 568 21G
VStem: 26 103<0 259 0 346 346 572> 273 103
LayerCount: 2
Fore
SplineSet
273 378 m 2
 273 290 219 259 166 259 c 2
 129 259 l 1
 129 0 l 1
 26 0 l 1
 26 666 l 1
 166 666 l 2
 219 666 273 636 273 547 c 2
 273 378 l 2
174 374 m 2
 174 544 l 2
 174 564 168 572 156 572 c 2
 129 572 l 1
 129 346 l 1
 156 346 l 2
 168 346 174 354 174 374 c 2
EndSplineSet
Validated: 1
EndChar

StartChar: Q
Encoding: 81 81 50
Width: 304
Flags: MW
HStem: -10 98 676 98
VStem: 21 103 281 103
LayerCount: 2
Fore
SplineSet
309 0 m 1
 300 -7 287 -10 268 -10 c 0
 247 -10 228 -1 218 12 c 1
 200 -2 177 -10 147 -10 c 0
 79 -10 21 44 21 124 c 2
 21 542 l 2
 21 621 79 676 151 676 c 0
 223 676 281 621 281 542 c 2
 281 127 l 2
 281 109 278 92 273 78 c 1
 279 71 289 69 309 69 c 1
 309 0 l 1
176 156 m 1
 176 549 l 2
 176 566 166 576 151 576 c 0
 136 576 126 566 126 549 c 2
 126 117 l 2
 126 100 136 90 151 90 c 0
 157 90 163 91 167 95 c 1
 145 116 l 1
 176 156 l 1
EndSplineSet
Validated: 1
EndChar

StartChar: R
Encoding: 82 82 51
Width: 296
Flags: MW
HStem: 0 20 278 90 568 21G
VStem: 26 103<0 278 0 366 366 572> 176 103
LayerCount: 2
Fore
SplineSet
289 0 m 1
 201 0 l 2
 185 0 176 65 176 103 c 2
 176 248 l 2
 176 264 168 278 154 278 c 2
 129 278 l 1
 129 0 l 1
 26 0 l 1
 26 666 l 1
 165 666 l 2
 216 666 273 636 273 549 c 2
 273 397 l 2
 273 366 256 340 229 322 c 1
 256 304 276 279 276 246 c 2
 276 111 l 2
 276 69 282 35 289 3 c 1
 289 0 l 1
173 394 m 2
 173 544 l 2
 173 564 167 572 155 572 c 2
 129 572 l 1
 129 366 l 1
 155 366 l 2
 167 366 173 373 173 394 c 2
EndSplineSet
Validated: 1
EndChar

StartChar: S
Encoding: 83 83 52
Width: 283
Flags: MW
HStem: -10 90 676 98
VStem: 12 103 175 84
LayerCount: 2
Fore
SplineSet
269 137 m 0
 269 33 206 -10 141 -10 c 0
 61 -10 12 40 12 129 c 2
 12 199 l 1
 102 199 l 1
 102 121 l 2
 102 97 113 81 136 81 c 0
 158 81 169 96 169 121 c 0
 169 181 145 228 106 295 c 0
 67 357 14 449 14 526 c 0
 14 609 57 676 147 676 c 0
 217 676 264 625 264 537 c 2
 264 464 l 1
 175 464 l 1
 175 547 l 2
 175 569 163 581 147 581 c 0
 130 581 116 570 116 547 c 0
 116 470 139 443 181 369 c 0
 225 294 269 215 269 137 c 0
EndSplineSet
Validated: 1
EndChar

StartChar: T
Encoding: 84 84 53
Width: 261
Flags: MW
HStem: 0 20 568 21G
VStem: 79 103<0 565 0 565>
LayerCount: 2
Fore
SplineSet
257 565 m 1
 182 565 l 1
 182 0 l 1
 79 0 l 1
 79 565 l 1
 4 565 l 1
 4 666 l 1
 257 666 l 1
 257 565 l 1
EndSplineSet
Validated: 1
EndChar

StartChar: U
Encoding: 85 85 54
Width: 301
Flags: MW
HStem: -10 98 666 20
VStem: 24 103<121 666> 277 103
LayerCount: 2
Fore
SplineSet
277 121 m 2
 277 45 224 -10 152 -10 c 0
 80 -10 24 45 24 121 c 2
 24 666 l 1
 127 666 l 1
 127 117 l 2
 127 100 138 90 152 90 c 0
 167 90 178 100 178 117 c 2
 178 666 l 1
 277 666 l 1
 277 121 l 2
EndSplineSet
Validated: 1
EndChar

StartChar: V
Encoding: 86 86 55
Width: 280
Flags: MW
HStem: 0 20 666 20
LayerCount: 2
Fore
SplineSet
280 666 m 1
 190 0 l 1
 90 0 l 1
 1 666 l 1
 104 666 l 1
 143 231 l 1
 184 666 l 1
 280 666 l 1
EndSplineSet
Validated: 1
EndChar

StartChar: W
Encoding: 87 87 56
Width: 407
Flags: MW
HStem: 0 20 666 20
LayerCount: 2
Fore
SplineSet
411 666 m 1
 323 0 l 1
 237 0 l 1
 201 367 l 1
 160 0 l 1
 75 0 l 1
 -1 666 l 1
 99 666 l 1
 131 246 l 1
 170 666 l 1
 247 666 l 1
 280 246 l 1
 318 666 l 1
 411 666 l 1
EndSplineSet
Validated: 1
EndChar

StartChar: X
Encoding: 88 88 57
Width: 285
Flags: MW
HStem: 0 20 666 20
LayerCount: 2
Fore
SplineSet
281 0 m 1
 177 0 l 1
 140 210 l 1
 97 0 l 1
 -1 0 l 1
 82 330 l 1
 5 666 l 1
 109 666 l 1
 144 438 l 1
 187 666 l 1
 284 666 l 1
 203 346 l 1
 281 0 l 1
EndSplineSet
Validated: 1
EndChar

StartChar: Y
Encoding: 89 89 58
Width: 282
Flags: MW
HStem: 0 20 666 20
VStem: 86 103<0 266 0 266>
LayerCount: 2
Fore
SplineSet
285 666 m 1
 189 266 l 1
 189 0 l 1
 86 0 l 1
 86 266 l 1
 -2 666 l 1
 100 666 l 1
 145 404 l 1
 185 666 l 1
 285 666 l 1
EndSplineSet
Validated: 1
EndChar

StartChar: Z
Encoding: 90 90 59
Width: 250
Flags: MW
HStem: 0 98<117 236 117 236> 568 21G<11 129 11 11>
VStem: 4 228
LayerCount: 2
Fore
SplineSet
242 631 m 1
 117 98 l 1
 236 98 l 1
 236 0 l 1
 4 0 l 1
 4 35 l 1
 129 568 l 1
 11 568 l 1
 11 666 l 1
 242 666 l 1
 242 631 l 1
EndSplineSet
Validated: 1
EndChar

StartChar: bracketleft
Encoding: 91 91 60
Width: 213
Flags: MW
HStem: -116 50 730 58
VStem: 69 68
LayerCount: 2
Fore
SplineSet
217 -116 m 1
 69 -116 l 1
 69 730 l 1
 217 730 l 1
 217 674 l 1
 133 674 l 1
 133 -61 l 1
 217 -61 l 1
 217 -116 l 1
EndSplineSet
Validated: 1
EndChar

StartChar: backslash
Encoding: 92 92 61
Width: 217
Flags: W
LayerCount: 2
Fore
SplineSet
225 -64 m 1
 171 -64 l 1
 -2 729 l 1
 52 729 l 1
 225 -64 l 1
EndSplineSet
Validated: 1
EndChar

StartChar: bracketright
Encoding: 93 93 62
Width: 213
Flags: MW
HStem: -116 50 730 58
VStem: 152 68
LayerCount: 2
Fore
SplineSet
152 -116 m 1
 4 -116 l 1
 4 -61 l 1
 88 -61 l 1
 88 674 l 1
 4 674 l 1
 4 730 l 1
 152 730 l 1
 152 -116 l 1
EndSplineSet
Validated: 1
EndChar

StartChar: asciicircum
Encoding: 94 94 63
Width: 206
Flags: MW
HStem: 532 134<31 128 76 169.5>
LayerCount: 2
Fore
SplineSet
198 540 m 1
 187 535 174 532 165 532 c 0
 134 532 109 552 100 605 c 1
 91 552 67 532 36 532 c 0
 26 532 17 535 6 540 c 1
 6 566 l 1
 29 566 63 598 76 666 c 1
 128 666 l 1
 141 598 175 566 198 566 c 1
 198 540 l 1
EndSplineSet
Validated: 1
EndChar

StartChar: underscore
Encoding: 95 95 64
Width: 260
Flags: MW
HStem: -75 76
VStem: 0 260<-75 0 -75 0>
LayerCount: 2
Fore
SplineSet
260 -75 m 1
 0 -75 l 1
 0 0 l 1
 260 0 l 1
 260 -75 l 1
EndSplineSet
Validated: 1
EndChar

StartChar: grave
Encoding: 96 96 65
Width: 128
Flags: MW
HStem: 672 20
LayerCount: 2
Fore
SplineSet
110 538 m 1
 65 538 l 1
 3 672 l 1
 78 672 l 1
 110 538 l 1
EndSplineSet
Validated: 1
EndChar

StartChar: a
Encoding: 97 97 66
Width: 235
Flags: MW
HStem: -8 82 500 82
VStem: 12 84 210 84
LayerCount: 2
Fore
SplineSet
226 -8 m 1
 207 -8 l 2
 181 -8 163 7 151 36 c 1
 140 7 117 -8 89 -8 c 0
 42 -8 12 34 12 104 c 2
 12 145 l 2
 12 226 58 272 130 314 c 1
 130 395 l 2
 130 408 124 418 114 418 c 0
 104 418 99 408 99 395 c 2
 99 339 l 1
 22 339 l 1
 22 383 l 2
 22 452 58 500 119 500 c 0
 177 500 210 451 210 381 c 2
 210 86 l 2
 210 73 213 64 226 62 c 1
 226 -8 l 1
130 96 m 2
 130 234 l 1
 105 215 92 191 92 160 c 2
 92 98 l 2
 92 82 99 70 111 70 c 0
 123 70 130 82 130 96 c 2
EndSplineSet
Validated: 1
EndChar

StartChar: b
Encoding: 98 98 67
Width: 250
Flags: MW
HStem: -8 82 500 82 666 20
VStem: 25 84<92 99 99 392 461 666> 228 84
LayerCount: 2
Fore
SplineSet
228 84 m 2
 228 33 202 -8 160 -8 c 0
 136 -8 114 6 103 30 c 1
 97 0 l 1
 25 0 l 1
 25 666 l 1
 109 666 l 1
 109 461 l 1
 121 485 142 500 164 500 c 0
 200 500 228 459 228 410 c 2
 228 84 l 2
144 99 m 2
 144 392 l 2
 144 406 137 416 127 416 c 0
 116 416 109 406 109 392 c 2
 109 99 l 2
 109 85 116 75 127 75 c 0
 137 75 144 85 144 99 c 2
EndSplineSet
Validated: 1
EndChar

StartChar: c
Encoding: 99 99 68
Width: 231
Flags: MW
HStem: -8 82 500 82
VStem: 21 84 216 68
LayerCount: 2
Fore
SplineSet
216 113 m 2
 216 39 179 -8 122 -8 c 0
 66 -8 21 39 21 113 c 2
 21 379 l 2
 21 452 66 500 122 500 c 0
 179 500 216 452 216 379 c 2
 216 309 l 1
 146 309 l 1
 146 390 l 2
 146 408 137 418 126 418 c 0
 114 418 104 408 104 390 c 2
 104 101 l 2
 104 83 114 73 126 73 c 0
 137 73 146 83 146 101 c 2
 146 183 l 1
 216 183 l 1
 216 113 l 2
EndSplineSet
Validated: 1
EndChar

StartChar: d
Encoding: 100 100 69
Width: 249
Flags: MW
HStem: -8 82 500 82 666 20
VStem: 21 84<92 99 99 392> 224 84
LayerCount: 2
Fore
SplineSet
224 0 m 1
 153 0 l 1
 147 30 l 1
 135 6 114 -8 90 -8 c 0
 48 -8 21 33 21 84 c 2
 21 410 l 2
 21 459 51 500 87 500 c 0
 109 500 125 488 141 468 c 1
 141 666 l 1
 224 666 l 1
 224 0 l 1
141 99 m 2
 141 392 l 2
 141 406 133 416 123 416 c 0
 112 416 105 406 105 392 c 2
 105 99 l 2
 105 85 112 75 123 75 c 0
 133 75 141 85 141 99 c 2
EndSplineSet
Validated: 1
EndChar

StartChar: e
Encoding: 101 101 70
Width: 239
Flags: MW
HStem: -8 82 287 58 500 82
VStem: 21 84<112 228 287 380 380 392> 220 76
LayerCount: 2
Fore
SplineSet
220 112 m 2
 220 41 179 -8 122 -8 c 0
 66 -8 21 41 21 112 c 2
 21 380 l 2
 21 450 66 500 122 500 c 0
 179 500 220 451 220 380 c 2
 220 228 l 1
 105 228 l 1
 105 99 l 2
 105 86 111 73 125 73 c 0
 140 73 145 86 145 99 c 2
 145 181 l 1
 220 181 l 1
 220 112 l 2
144 287 m 1
 144 392 l 2
 144 406 137 418 125 418 c 0
 112 418 105 406 105 392 c 2
 105 287 l 1
 144 287 l 1
EndSplineSet
Validated: 1
EndChar

StartChar: f
Encoding: 102 102 71
Width: 174
Flags: MW
HStem: 0 20 489 82 666 82
VStem: 44 84
LayerCount: 2
Fore
SplineSet
168 410 m 1
 129 410 l 1
 129 0 l 1
 44 0 l 1
 44 410 l 1
 10 410 l 1
 10 489 l 1
 44 489 l 1
 44 534 l 2
 44 617 73 666 152 666 c 2
 167 666 l 1
 167 588 l 1
 158 588 l 2
 134 588 127 574 127 547 c 2
 127 489 l 1
 168 489 l 1
 168 410 l 1
EndSplineSet
Validated: 1
EndChar

StartChar: g
Encoding: 103 103 72
Width: 245
Flags: MW
HStem: -175 82 32 82 247 76 537 98
VStem: 15 84 224 84
LayerCount: 2
Fore
SplineSet
256 503 m 0
 256 462 243 443 221 443 c 0
 215 443 208 445 200 449 c 1
 215 430 224 408 224 377 c 2
 224 290 l 2
 224 222 182 171 124 171 c 0
 119 171 112 172 109 173 c 0
 94 173 87 157 87 142 c 0
 87 125 97 110 127 110 c 0
 198 110 235 72 235 3 c 2
 235 -58 l 2
 235 -136 194 -175 126 -175 c 0
 64 -175 16 -140 16 -66 c 2
 16 -11 l 2
 16 15 31 40 48 55 c 1
 27 64 15 90 15 116 c 0
 15 153 39 185 69 189 c 1
 37 201 22 249 22 294 c 2
 22 382 l 2
 22 452 67 500 124 500 c 0
 136 500 150 497 156 497 c 0
 186 497 192 513 192 537 c 1
 254 537 l 1
 256 523 256 513 256 503 c 0
143 271 m 2
 143 395 l 2
 143 409 135 419 124 419 c 0
 112 419 104 409 104 395 c 2
 104 271 l 2
 104 258 112 247 124 247 c 0
 135 247 143 258 143 271 c 2
158 -66 m 2
 158 2 l 2
 158 18 148 32 128 32 c 0
 108 32 99 19 99 2 c 2
 99 -66 l 2
 99 -83 110 -97 128 -97 c 0
 147 -97 158 -83 158 -66 c 2
EndSplineSet
Validated: 1
EndChar

StartChar: h
Encoding: 104 104 73
Width: 253
Flags: MW
HStem: 0 20 500 82 666 20
VStem: 25 84<0 392 0 459 459 666> 230 84
LayerCount: 2
Fore
SplineSet
230 0 m 1
 145 0 l 1
 145 392 l 2
 145 406 137 416 127 416 c 0
 117 416 109 406 109 392 c 2
 109 0 l 1
 25 0 l 1
 25 666 l 1
 109 666 l 1
 109 459 l 1
 122 483 142 500 167 500 c 0
 204 500 230 463 230 413 c 2
 230 0 l 1
EndSplineSet
Validated: 1
EndChar

StartChar: i
Encoding: 105 105 74
Width: 134
Flags: MW
HStem: 0 20 641 98
VStem: 25 84<0 491>
LayerCount: 2
Fore
SplineSet
107 545 m 1
 27 545 l 1
 27 641 l 1
 107 641 l 1
 107 545 l 1
109 0 m 1
 25 0 l 1
 25 491 l 1
 109 491 l 1
 109 0 l 1
EndSplineSet
Validated: 1
EndChar

StartChar: j
Encoding: 106 106 75
Width: 134
Flags: MW
HStem: -169 82 641 98
VStem: 109 84
LayerCount: 2
Fore
SplineSet
107 545 m 1
 27 545 l 1
 27 641 l 1
 107 641 l 1
 107 545 l 1
109 -37 m 2
 109 -120 81 -169 1 -169 c 2
 -14 -169 l 1
 -14 -92 l 1
 -5 -92 l 2
 19 -92 25 -79 25 -51 c 2
 25 491 l 1
 109 491 l 1
 109 -37 l 2
EndSplineSet
Validated: 1
EndChar

StartChar: k
Encoding: 107 107 76
Width: 245
Flags: MW
HStem: 0 20 666 20
VStem: 25 84<0 147 277 666>
LayerCount: 2
Fore
SplineSet
240 0 m 1
 157 0 l 1
 122 193 l 1
 109 147 l 1
 109 0 l 1
 25 0 l 1
 25 666 l 1
 109 666 l 1
 109 277 l 1
 154 492 l 1
 234 492 l 1
 181 268 l 1
 240 0 l 1
EndSplineSet
Validated: 1
EndChar

StartChar: l
Encoding: 108 108 77
Width: 134
Flags: MW
HStem: 0 20 666 20
VStem: 25 84<0 666>
LayerCount: 2
Fore
SplineSet
109 0 m 1
 25 0 l 1
 25 666 l 1
 109 666 l 1
 109 0 l 1
EndSplineSet
Validated: 1
EndChar

StartChar: m
Encoding: 109 109 78
Width: 374
Flags: MW
HStem: 0 20 500 82
VStem: 25 84<0 393 0 452 0 491> 231 84 351 84
LayerCount: 2
Fore
SplineSet
351 0 m 1
 266 0 l 1
 266 388 l 2
 266 402 258 412 248 412 c 0
 239 412 231 402 231 388 c 2
 231 0 l 1
 146 0 l 1
 146 393 l 2
 146 406 137 417 128 417 c 0
 118 417 109 406 109 393 c 2
 109 0 l 1
 25 0 l 1
 25 491 l 1
 102 491 l 1
 109 452 l 1
 118 481 139 500 164 500 c 0
 193 500 213 475 223 444 c 1
 234 480 256 500 284 500 c 0
 324 500 351 462 351 409 c 2
 351 0 l 1
EndSplineSet
Validated: 1
EndChar

StartChar: n
Encoding: 110 110 79
Width: 253
Flags: MW
HStem: 0 20 500 82
VStem: 25 84<0 392 0 491> 230 84
LayerCount: 2
Fore
SplineSet
230 0 m 1
 145 0 l 1
 145 392 l 2
 145 406 137 416 127 416 c 0
 117 416 109 406 109 392 c 2
 109 0 l 1
 25 0 l 1
 25 491 l 1
 103 491 l 1
 107 455 l 1
 117 482 142 500 166 500 c 0
 204 500 230 463 230 413 c 2
 230 0 l 1
EndSplineSet
Validated: 1
EndChar

StartChar: o
Encoding: 111 111 80
Width: 245
Flags: MW
HStem: -8 82 500 82
VStem: 21 84<113 378 378 394> 224 84
LayerCount: 2
Fore
SplineSet
224 113 m 2
 224 39 179 -8 123 -8 c 0
 66 -8 21 39 21 113 c 2
 21 378 l 2
 21 452 66 500 123 500 c 0
 179 500 224 452 224 378 c 2
 224 113 l 2
140 97 m 2
 140 394 l 2
 140 407 133 418 123 418 c 0
 112 418 105 407 105 394 c 2
 105 97 l 2
 105 84 112 73 123 73 c 0
 133 73 140 84 140 97 c 2
EndSplineSet
Validated: 1
EndChar

StartChar: p
Encoding: 112 112 81
Width: 250
Flags: MW
HStem: -9 82 499 82
VStem: 25 84<-166 23 92 99 99 392> 228 84
LayerCount: 2
Fore
SplineSet
228 81 m 2
 228 32 200 -9 163 -9 c 0
 141 -9 124 3 109 23 c 1
 109 -166 l 1
 25 -166 l 1
 25 491 l 1
 97 491 l 1
 103 461 l 1
 115 485 136 499 160 499 c 0
 203 499 228 458 228 407 c 2
 228 81 l 2
144 99 m 2
 144 392 l 2
 144 406 137 416 127 416 c 0
 117 416 109 406 109 392 c 2
 109 99 l 2
 109 85 117 75 127 75 c 0
 137 75 144 85 144 99 c 2
EndSplineSet
Validated: 1
EndChar

StartChar: q
Encoding: 113 113 82
Width: 249
Flags: MW
HStem: -8 82 500 82
VStem: 21 84<92 99 99 392> 224 84
LayerCount: 2
Fore
SplineSet
224 -166 m 1
 141 -166 l 1
 141 30 l 1
 128 6 108 -8 86 -8 c 0
 49 -8 21 32 21 81 c 2
 21 407 l 2
 21 458 48 500 90 500 c 0
 114 500 135 485 147 461 c 1
 152 491 l 1
 224 491 l 1
 224 -166 l 1
141 99 m 2
 141 392 l 2
 141 406 133 416 123 416 c 0
 112 416 105 406 105 392 c 2
 105 99 l 2
 105 85 112 75 123 75 c 0
 133 75 141 85 141 99 c 2
EndSplineSet
Validated: 1
EndChar

StartChar: r
Encoding: 114 114 83
Width: 187
Flags: MW
HStem: 0 20 499 20
VStem: 25 84<0 341 0 491>
LayerCount: 2
Fore
SplineSet
178 393 m 1
 130 397 109 381 109 341 c 2
 109 0 l 1
 25 0 l 1
 25 491 l 1
 101 491 l 1
 106 439 l 1
 116 480 143 503 178 498 c 1
 178 393 l 1
EndSplineSet
Validated: 33
EndChar

StartChar: s
Encoding: 115 115 84
Width: 226
Flags: MW
HStem: -8 82 500 82
VStem: 15 84 214 76
LayerCount: 2
Fore
SplineSet
214 121 m 0
 214 46 183 -8 117 -8 c 0
 56 -8 15 35 15 113 c 2
 15 152 l 1
 90 152 l 1
 90 101 l 2
 90 82 96 72 112 72 c 0
 127 72 136 82 136 102 c 0
 136 150 118 163 76 227 c 0
 48 267 17 313 17 375 c 0
 17 454 57 500 114 500 c 0
 177 500 212 445 212 381 c 2
 212 338 l 1
 139 338 l 1
 139 389 l 2
 139 405 131 418 117 418 c 0
 102 418 95 406 95 390 c 0
 95 351 112 326 141 279 c 1
 174 234 214 191 214 121 c 0
EndSplineSet
Validated: 1
EndChar

StartChar: t
Encoding: 116 116 85
Width: 169
Flags: MW
HStem: 0 20 489 82
VStem: 40 84
LayerCount: 2
Fore
SplineSet
164 410 m 1
 125 410 l 1
 125 132 l 2
 125 79 128 38 138 0 c 1
 57 0 l 1
 46 34 40 71 40 132 c 2
 40 410 l 1
 6 410 l 1
 6 489 l 1
 45 489 l 1
 45 564 l 1
 125 588 l 1
 125 489 l 1
 164 489 l 1
 164 410 l 1
EndSplineSet
Validated: 1
EndChar

StartChar: u
Encoding: 117 117 86
Width: 253
Flags: MW
HStem: -8 82 491 20
VStem: 24 84<92 99 99 491> 228 84
LayerCount: 2
Fore
SplineSet
228 0 m 1
 152 0 l 1
 148 36 l 1
 137 9 113 -8 88 -8 c 0
 50 -8 24 29 24 78 c 2
 24 491 l 1
 108 491 l 1
 108 99 l 2
 108 85 117 75 127 75 c 0
 136 75 144 85 144 99 c 2
 144 491 l 1
 228 491 l 1
 228 0 l 1
EndSplineSet
Validated: 1
EndChar

StartChar: v
Encoding: 118 118 87
Width: 224
Flags: MW
HStem: 0 20 491 20
LayerCount: 2
Fore
SplineSet
218 491 m 1
 148 0 l 1
 78 0 l 1
 7 491 l 1
 90 491 l 1
 109 281 l 1
 116 191 l 1
 122 281 l 1
 140 491 l 1
 218 491 l 1
EndSplineSet
Validated: 1
EndChar

StartChar: w
Encoding: 119 119 88
Width: 343
Flags: MW
HStem: 0 20 491 20
VStem: 118 51 232 57
LayerCount: 2
Fore
SplineSet
338 491 m 1
 270 0 l 1
 200 0 l 1
 180 174 l 1
 171 284 l 1
 163 174 l 1
 142 0 l 1
 72 0 l 1
 6 491 l 1
 91 491 l 1
 106 286 l 1
 114 171 l 1
 122 286 l 1
 141 491 l 1
 211 491 l 1
 228 286 l 1
 236 171 l 1
 244 286 l 1
 262 491 l 1
 338 491 l 1
EndSplineSet
Validated: 1
EndChar

StartChar: x
Encoding: 120 120 89
Width: 234
Flags: MW
HStem: 0 20 491 20
LayerCount: 2
Fore
SplineSet
227 0 m 1
 141 0 l 1
 116 156 l 1
 89 0 l 1
 6 0 l 1
 66 240 l 1
 6 491 l 1
 90 491 l 1
 116 332 l 1
 142 491 l 1
 227 491 l 1
 166 258 l 1
 227 0 l 1
EndSplineSet
Validated: 1
EndChar

StartChar: y
Encoding: 121 121 90
Width: 222
Flags: MW
HStem: -169 82 491 20
LayerCount: 2
Fore
SplineSet
217 491 m 1
 143 -36 l 2
 129 -131 114 -169 33 -169 c 2
 20 -169 l 1
 20 -92 l 1
 33 -92 l 2
 55 -92 62 -80 66 -50 c 2
 74 17 l 1
 6 491 l 1
 89 491 l 1
 108 281 l 1
 114 191 l 1
 121 281 l 1
 139 491 l 1
 217 491 l 1
EndSplineSet
Validated: 1
EndChar

StartChar: z
Encoding: 122 122 91
Width: 206
Flags: MW
HStem: 0 90<103 188 103 188> 491 82
VStem: 9 178
LayerCount: 2
Fore
SplineSet
194 459 m 1
 103 90 l 1
 188 90 l 1
 188 0 l 1
 9 0 l 1
 9 32 l 1
 102 404 l 1
 19 404 l 1
 19 491 l 1
 194 491 l 1
 194 459 l 1
EndSplineSet
Validated: 1
EndChar

StartChar: braceleft
Encoding: 123 123 92
Width: 238
Flags: MW
HStem: -116 50 284 50 730 50
VStem: 57 76
LayerCount: 2
Fore
SplineSet
206 -116 m 1
 179 -116 l 2
 96 -116 57 -56 57 15 c 0
 57 112 122 204 122 246 c 0
 122 272 110 284 74 284 c 2
 42 284 l 1
 42 330 l 1
 74 330 l 2
 110 330 122 342 122 368 c 0
 122 410 57 503 57 599 c 0
 57 670 96 730 179 730 c 2
 206 730 l 1
 206 682 l 1
 189 682 l 2
 151 682 132 648 132 597 c 0
 132 524 184 446 184 393 c 0
 184 352 167 323 116 310 c 1
 167 297 184 268 184 227 c 0
 184 174 132 90 132 17 c 0
 132 -33 151 -68 189 -68 c 2
 206 -68 l 1
 206 -116 l 1
EndSplineSet
Validated: 1
EndChar

StartChar: bar
Encoding: 124 124 93
Width: 105
Flags: MW
VStem: 26 57
LayerCount: 2
Fore
SplineSet
79 -64 m 1
 26 -64 l 1
 26 729 l 1
 79 729 l 1
 79 -64 l 1
EndSplineSet
Validated: 1
EndChar

StartChar: braceright
Encoding: 125 125 94
Width: 238
Flags: MW
HStem: -116 50 284 50 730 50
VStem: 181 76
LayerCount: 2
Fore
SplineSet
196 284 m 1
 164 284 l 2
 128 284 116 272 116 246 c 0
 116 204 181 112 181 15 c 0
 181 -56 142 -116 59 -116 c 2
 32 -116 l 1
 32 -68 l 1
 49 -68 l 2
 87 -68 106 -33 106 17 c 0
 106 90 54 174 54 227 c 0
 54 268 71 297 122 310 c 1
 71 323 54 352 54 393 c 0
 54 446 106 524 106 597 c 0
 106 648 87 682 49 682 c 2
 32 682 l 1
 32 730 l 1
 59 730 l 2
 142 730 181 670 181 599 c 0
 181 503 116 410 116 368 c 0
 116 342 128 330 164 330 c 2
 196 330 l 1
 196 284 l 1
EndSplineSet
Validated: 1
EndChar

StartChar: asciitilde
Encoding: 126 126 95
Width: 202
Flags: MW
HStem: 274 76
VStem: 8 42<276 338.5> 194 42
LayerCount: 2
Fore
SplineSet
194 351 m 0
 194 302 174 274 139 274 c 0
 108 274 82 317 64 317 c 0
 54 317 50 309 50 299 c 2
 50 276 l 1
 17 276 l 1
 10 289 8 301 8 314 c 0
 8 363 28 390 63 390 c 0
 94 390 119 348 138 348 c 0
 148 348 153 356 153 367 c 2
 153 389 l 1
 185 389 l 1
 191 376 194 364 194 351 c 0
EndSplineSet
Validated: 1
EndChar

StartChar: uni00A0
Encoding: 160 160 96
Width: 270
Flags: MW
HStem: 479 50 666 20
VStem: 115 42
LayerCount: 2
Fore
SplineSet
263 438 m 2
 263 431 258 428 253 428 c 0
 239 428 178 431 153 438 c 1
 159 413 162 274 162 260 c 0
 162 161 159 -23 155 -61 c 0
 155 -66 152 -72 146 -72 c 2
 124 -72 l 2
 118 -72 115 -66 115 -61 c 0
 111 -23 108 161 108 260 c 0
 108 274 111 413 117 438 c 1
 93 431 31 428 17 428 c 0
 12 428 7 431 7 438 c 2
 7 470 l 2
 7 476 12 479 17 479 c 0
 34 479 91 477 117 470 c 1
 111 495 108 641 108 655 c 0
 108 660 111 666 117 666 c 2
 153 666 l 2
 159 666 162 660 162 655 c 0
 162 641 159 495 153 470 c 1
 179 477 236 479 253 479 c 0
 258 479 263 476 263 470 c 2
 263 438 l 2
EndSplineSet
Validated: 1
EndChar

StartChar: exclamdown
Encoding: 161 161 97
Width: 140
Flags: MW
HStem: 491 108
VStem: 33 84
LayerCount: 2
Fore
SplineSet
106 383 m 1
 33 383 l 1
 33 491 l 1
 106 491 l 1
 106 383 l 1
113 -175 m 1
 27 -175 l 1
 27 114 l 1
 56 324 l 1
 84 324 l 1
 113 114 l 1
 113 -175 l 1
EndSplineSet
Validated: 1
EndChar

StartChar: cent
Encoding: 162 162 98
Width: 247
Flags: MW
HStem: 0 161 666 161
VStem: 27 84 222 68
LayerCount: 2
Fore
SplineSet
95 581 m 1
 95 666 l 1
 157 666 l 1
 157 582 l 1
 197 568 222 525 222 465 c 2
 222 396 l 1
 153 396 l 1
 153 477 l 2
 153 495 144 505 131 505 c 0
 120 505 110 495 110 477 c 2
 110 188 l 2
 110 170 120 160 131 160 c 0
 144 160 153 170 153 188 c 2
 153 270 l 1
 222 270 l 1
 222 200 l 2
 222 140 197 98 157 84 c 1
 157 0 l 1
 95 0 l 1
 95 85 l 1
 55 100 27 142 27 200 c 2
 27 465 l 2
 27 524 55 566 95 581 c 1
EndSplineSet
Validated: 1
EndChar

StartChar: sterling
Encoding: 163 163 99
Width: 346
Flags: MW
HStem: -10 98<61 74 61 82.5> 87 58 293 76<45 104 45 128 45 104 219 219 219 292> 676 108
VStem: -6 57 220 84 314 84
LayerCount: 2
Fore
SplineSet
329 113 m 2xfe
 329 44 300 -10 232 -10 c 0
 195 -10 155 10 137 34 c 1
 120 4 97 -10 68 -10 c 0
 25 -10 -6 21 -6 64 c 0
 -6 106 24 143 77 143 c 0
 93 143 107 140 120 134 c 1
 131 159 135 203 135 241 c 0
 135 259 132 277 128 293 c 1
 45 293 l 1
 45 369 l 1
 104 369 l 1
 95 402 79 450 79 514 c 0
 79 605 122 676 205 676 c 0
 279 676 314 609 314 542 c 2
 314 467 l 1
 229 467 l 1
 229 537 l 2
 229 559 219 570 205 570 c 0
 190 570 180 558 180 537 c 0
 180 461 196 411 206 369 c 1
 292 369 l 1
 292 293 l 1
 219 293 l 1
 220 284 220 275 220 266 c 0
 220 213 199 153 172 108 c 1
 187 97 203 87 222 87 c 0
 244 87 254 103 254 126 c 2
 254 197 l 1
 329 197 l 1
 329 113 l 2xfe
99 72 m 1
 89 84 80 88 68 88 c 0
 54 88 47 79 47 68 c 0
 47 56 56 48 68 48 c 0
 82 48 95 55 99 72 c 1
EndSplineSet
Validated: 8388609
EndChar

StartChar: Euro
Encoding: 8364 8364 100
Width: 307
Flags: MW
HStem: -175 82 676 90
VStem: 20 84 292 84
LayerCount: 2
Fore
SplineSet
292 256 m 0
 292 185 264 136 229 106 c 1
 268 52 287 23 287 -38 c 0
 287 -108 249 -175 158 -175 c 0
 72 -175 16 -126 16 -39 c 2
 16 -3 l 1
 108 -3 l 1
 108 -48 l 2
 108 -72 122 -90 150 -90 c 0
 180 -90 194 -71 194 -43 c 0
 194 51 20 100 20 253 c 0
 20 313 45 366 83 398 c 1
 49 443 24 478 24 537 c 0
 24 614 67 676 154 676 c 0
 239 676 285 614 285 541 c 2
 285 503 l 1
 194 503 l 1
 194 549 l 2
 194 570 185 586 160 586 c 0
 134 586 123 571 123 547 c 0
 123 459 292 404 292 256 c 0
205 232 m 0
 205 273 184 309 136 348 c 1
 118 333 105 302 105 274 c 0
 105 232 127 198 175 159 c 1
 193 175 205 204 205 232 c 0
EndSplineSet
Validated: 1
EndChar

StartChar: yen
Encoding: 165 165 101
Width: 299
Flags: MW
HStem: 0 20 148 76 276 76<26 81 26 98 26 81 212 268> 666 20
VStem: 98 93
LayerCount: 2
Fore
SplineSet
194 276 m 1
 194 223 l 1
 268 223 l 1
 268 148 l 1
 194 148 l 1
 194 0 l 1
 98 0 l 1
 98 148 l 1
 26 148 l 1
 26 223 l 1
 98 223 l 1
 98 276 l 1
 26 276 l 1
 26 352 l 1
 81 352 l 1
 13 666 l 1
 109 666 l 1
 152 413 l 1
 192 666 l 1
 286 666 l 1
 212 352 l 1
 268 352 l 1
 268 276 l 1
 194 276 l 1
EndSplineSet
Validated: 1
EndChar

StartChar: Scaron
Encoding: 352 352 102
Width: 283
Flags: MW
HStem: -10 90 676 98 834 36
VStem: 12 103 175 84
LayerCount: 2
Fore
SplineSet
269 137 m 0
 269 33 206 -10 141 -10 c 0
 61 -10 12 40 12 129 c 2
 12 199 l 1
 102 199 l 1
 102 121 l 2
 102 97 113 81 136 81 c 0
 158 81 169 96 169 121 c 0
 169 181 145 228 106 295 c 0
 67 357 14 449 14 526 c 0
 14 609 57 676 147 676 c 0
 217 676 264 625 264 537 c 2
 264 464 l 1
 175 464 l 1
 175 547 l 2
 175 569 163 581 147 581 c 0
 130 581 116 570 116 547 c 0
 116 470 139 443 181 369 c 0
 225 294 269 215 269 137 c 0
240 800 m 1
 217 800 183 769 171 701 c 1
 118 701 l 1
 105 769 71 800 48 800 c 1
 48 827 l 1
 59 832 72 834 81 834 c 0
 113 834 137 814 146 761 c 1
 155 814 179 834 210 834 c 0
 221 834 230 832 240 827 c 1
 240 800 l 1
EndSplineSet
Validated: 1
EndChar

StartChar: section
Encoding: 167 167 103
Width: 307
Flags: MW
HStem: -175 82 676 90
VStem: 20 84 292 84
LayerCount: 2
Fore
SplineSet
292 256 m 0
 292 185 264 136 229 106 c 1
 268 52 287 23 287 -38 c 0
 287 -108 249 -175 158 -175 c 0
 72 -175 16 -126 16 -39 c 2
 16 -3 l 1
 108 -3 l 1
 108 -48 l 2
 108 -72 122 -90 150 -90 c 0
 180 -90 194 -71 194 -43 c 0
 194 51 20 100 20 253 c 0
 20 313 45 366 83 398 c 1
 49 443 24 478 24 537 c 0
 24 614 67 676 154 676 c 0
 239 676 285 614 285 541 c 2
 285 503 l 1
 194 503 l 1
 194 549 l 2
 194 570 185 586 160 586 c 0
 134 586 123 571 123 547 c 0
 123 459 292 404 292 256 c 0
205 232 m 0
 205 273 184 309 136 348 c 1
 118 333 105 302 105 274 c 0
 105 232 127 198 175 159 c 1
 193 175 205 204 205 232 c 0
EndSplineSet
Validated: 1
EndChar

StartChar: scaron
Encoding: 353 353 104
Width: 226
Flags: MW
HStem: -8 82 500 82 674 36
VStem: 15 84 214 76
LayerCount: 2
Fore
SplineSet
214 121 m 0
 214 46 183 -8 117 -8 c 0
 56 -8 15 35 15 113 c 2
 15 152 l 1
 90 152 l 1
 90 101 l 2
 90 82 96 72 112 72 c 0
 127 72 136 82 136 102 c 0
 136 150 118 163 76 227 c 0
 48 267 17 313 17 375 c 0
 17 454 57 500 114 500 c 0
 177 500 212 445 212 381 c 2
 212 338 l 1
 139 338 l 1
 139 389 l 2
 139 405 131 418 117 418 c 0
 102 418 95 406 95 390 c 0
 95 351 112 326 141 279 c 1
 174 234 214 191 214 121 c 0
209 640 m 1
 186 640 152 609 140 541 c 1
 87 541 l 1
 74 609 40 640 17 640 c 1
 17 667 l 1
 28 672 41 674 50 674 c 0
 82 674 106 654 115 601 c 1
 124 654 148 674 179 674 c 0
 190 674 199 672 209 667 c 1
 209 640 l 1
EndSplineSet
Validated: 1
EndChar

StartChar: copyright
Encoding: 169 169 105
Width: 543
Flags: MW
HStem: 54 36 185 36 439 36 571 36
VStem: 17 42 188 42 357 42 526 42
LayerCount: 2
Fore
SplineSet
526 312 m 0
 526 170 417 54 271 54 c 0
 125 54 17 170 17 312 c 0
 17 455 125 571 271 571 c 0
 417 571 526 455 526 312 c 0
486 312 m 0
 486 435 398 533 271 533 c 0
 145 533 57 435 57 312 c 0
 57 190 145 91 271 91 c 0
 398 91 486 190 486 312 c 0
357 258 m 2
 357 216 323 185 274 185 c 0
 224 185 188 217 188 259 c 2
 188 365 l 2
 188 409 224 439 274 439 c 0
 323 439 357 410 357 366 c 2
 357 350 l 1
 318 350 l 1
 318 366 l 2
 318 387 303 405 275 405 c 0
 246 405 232 387 232 365 c 2
 232 259 l 2
 232 238 246 220 275 220 c 0
 303 220 318 237 318 258 c 2
 318 275 l 1
 357 275 l 1
 357 258 l 2
EndSplineSet
Validated: 1
EndChar

StartChar: ordfeminine
Encoding: 170 170 106
Width: 235
Flags: MW
HStem: 308 58 676 118
VStem: 21 76 204 76
LayerCount: 2
Fore
SplineSet
224 308 m 1
 203 308 l 2
 177 308 159 321 148 345 c 1
 137 320 116 308 88 308 c 0
 49 308 21 339 21 393 c 2
 21 416 l 2
 21 477 61 509 130 538 c 1
 130 595 l 2
 130 605 124 612 115 612 c 0
 106 612 101 605 101 595 c 2
 101 557 l 1
 31 557 l 1
 31 586 l 2
 31 638 62 676 120 676 c 0
 175 676 204 638 204 583 c 2
 204 381 l 2
 204 371 209 364 224 363 c 1
 224 308 l 1
130 388 m 2
 130 482 l 1
 106 469 95 453 95 429 c 2
 95 390 l 2
 95 376 102 368 113 368 c 0
 124 368 130 376 130 388 c 2
EndSplineSet
Validated: 1
EndChar

StartChar: guillemotleft
Encoding: 171 171 107
Width: 320
Flags: MW
HStem: 0 20
LayerCount: 2
Fore
SplineSet
152 0 m 1
 118 0 l 1
 106 81 76 135 21 165 c 1
 21 222 l 1
 76 252 106 306 118 387 c 1
 152 387 l 1
 152 296 139 231 101 193 c 1
 139 156 152 91 152 0 c 1
294 0 m 1
 261 0 l 1
 249 81 219 135 164 165 c 1
 164 222 l 1
 219 252 249 306 261 387 c 1
 294 387 l 1
 294 296 281 231 244 193 c 1
 281 156 294 91 294 0 c 1
EndSplineSet
Validated: 1
EndChar

StartChar: registered
Encoding: 174 174 108
Width: 543
Flags: MW
HStem: 54 36 190 28 296 28 435 36 571 36
VStem: 17 42 195 42 370 57 526 42
LayerCount: 2
Fore
SplineSet
526 312 m 0
 526 170 417 54 271 54 c 0
 125 54 17 170 17 312 c 0
 17 455 125 571 271 571 c 0
 417 571 526 455 526 312 c 0
486 312 m 0
 486 435 398 533 271 533 c 0
 145 533 57 435 57 312 c 0
 57 190 145 91 271 91 c 0
 398 91 486 190 486 312 c 0
370 190 m 1
 358 190 l 2
 325 190 313 199 313 229 c 2
 313 262 l 2
 313 281 304 296 283 296 c 2
 239 296 l 1
 239 193 l 1
 195 193 l 1
 195 435 l 1
 287 435 l 2
 338 435 356 410 356 371 c 2
 356 361 l 2
 356 332 346 316 317 311 c 1
 345 308 357 285 357 262 c 2
 357 232 l 2
 357 225 361 222 370 222 c 1
 370 190 l 1
311 358 m 2
 311 372 l 2
 311 388 305 400 284 400 c 2
 239 400 l 1
 239 326 l 1
 280 326 l 2
 301 326 311 337 311 358 c 2
EndSplineSet
Validated: 1
EndChar

StartChar: guillemotright
Encoding: 187 187 109
Width: 319
Flags: MW
HStem: 0 20
LayerCount: 2
Fore
SplineSet
155 165 m 1
 100 135 70 81 58 0 c 1
 25 0 l 1
 25 91 38 156 75 193 c 1
 38 231 25 296 25 387 c 1
 58 387 l 1
 70 306 100 252 155 222 c 1
 155 165 l 1
298 165 m 1
 243 135 213 81 201 0 c 1
 167 0 l 1
 167 91 180 156 218 193 c 1
 180 231 167 296 167 387 c 1
 201 387 l 1
 213 306 243 252 298 222 c 1
 298 165 l 1
EndSplineSet
Validated: 1
EndChar

StartChar: OE
Encoding: 338 338 110
Width: 405
Flags: MW
HStem: 0 98 389 90 568 21G
VStem: 22 103 175 103
LayerCount: 2
Fore
SplineSet
392 0 m 1
 143 0 l 2
 80 0 22 33 22 126 c 2
 22 536 l 2
 22 629 80 666 143 666 c 2
 392 666 l 1
 392 570 l 1
 279 570 l 1
 279 389 l 1
 353 389 l 1
 353 297 l 1
 279 297 l 1
 279 99 l 1
 392 99 l 1
 392 0 l 1
175 95 m 1
 175 571 l 1
 152 571 l 2
 133 571 126 559 126 536 c 2
 126 130 l 2
 126 106 133 95 152 95 c 2
 175 95 l 1
EndSplineSet
Validated: 1
EndChar

StartChar: oe
Encoding: 339 339 111
Width: 364
Flags: MW
HStem: -8 82 287 58 500 82
VStem: 21 84 230 93 346 76
LayerCount: 2
Fore
SplineSet
346 112 m 2
 346 41 309 -8 252 -8 c 0
 226 -8 201 3 186 25 c 1
 170 3 144 -8 118 -8 c 0
 62 -8 21 39 21 113 c 2
 21 378 l 2
 21 452 62 500 118 500 c 0
 144 500 170 488 186 466 c 1
 201 488 227 500 252 500 c 0
 309 500 346 451 346 380 c 2
 346 228 l 1
 230 228 l 1
 230 101 l 2
 230 87 236 75 251 75 c 0
 265 75 271 87 271 101 c 2
 271 181 l 1
 346 181 l 1
 346 112 l 2
270 287 m 1
 270 391 l 2
 270 404 263 417 250 417 c 0
 237 417 230 404 230 391 c 2
 230 287 l 1
 270 287 l 1
140 99 m 2
 140 392 l 2
 140 406 133 416 123 416 c 0
 112 416 104 406 104 392 c 2
 104 99 l 2
 104 85 112 75 123 75 c 0
 133 75 140 85 140 99 c 2
EndSplineSet
Validated: 1
EndChar

StartChar: Ydieresis
Encoding: 376 376 112
Width: 282
Flags: MW
HStem: 0 20 666 20 708 98
VStem: 68 57 86 103<0 266 0 266> 220 57
LayerCount: 2
Fore
SplineSet
285 666 m 1xc8
 189 266 l 1
 189 0 l 1
 86 0 l 1
 86 266 l 1
 -2 666 l 1
 100 666 l 1
 145 404 l 1
 185 666 l 1
 285 666 l 1xc8
220 708 m 1x34
 160 708 l 1
 160 803 l 1
 220 803 l 1
 220 708 l 1x34
127 708 m 1
 68 708 l 1
 68 803 l 1
 127 803 l 1
 127 708 l 1
EndSplineSet
Validated: 1
EndChar

StartChar: questiondown
Encoding: 191 191 113
Width: 247
Flags: MW
HStem: -185 98 491 108
VStem: 3 93 232 84
LayerCount: 2
Fore
SplineSet
3 -41 m 0
 3 19 25 101 69 176 c 0
 94 218 104 273 104 315 c 1
 166 315 l 1
 166 247 157 201 120 93 c 0
 104 45 94 0 94 -25 c 0
 94 -70 101 -85 121 -85 c 0
 140 -85 148 -70 148 -48 c 2
 148 30 l 1
 232 30 l 1
 232 -57 l 2
 232 -127 196 -185 120 -185 c 0
 36 -185 3 -124 3 -41 c 0
99 491 m 1
 171 491 l 1
 171 383 l 1
 99 383 l 1
 99 491 l 1
EndSplineSet
Validated: 1
EndChar

StartChar: Agrave
Encoding: 192 192 114
Width: 276
Flags: MW
HStem: 0 20 114 98 666 20 832 20
LayerCount: 2
Fore
SplineSet
274 0 m 1
 169 0 l 1
 163 114 l 1
 102 114 l 1
 92 0 l 1
 -1 0 l 1
 78 666 l 1
 195 666 l 1
 274 0 l 1
155 209 m 1
 137 485 l 1
 112 209 l 1
 155 209 l 1
158 698 m 1
 113 698 l 1
 51 832 l 1
 126 832 l 1
 158 698 l 1
EndSplineSet
Validated: 1
EndChar

StartChar: Aacute
Encoding: 193 193 115
Width: 276
Flags: MW
HStem: 0 20 114 98 666 20 832 20
LayerCount: 2
Fore
SplineSet
274 0 m 1
 169 0 l 1
 163 114 l 1
 102 114 l 1
 92 0 l 1
 -1 0 l 1
 78 666 l 1
 195 666 l 1
 274 0 l 1
155 209 m 1
 137 485 l 1
 112 209 l 1
 155 209 l 1
220 832 m 1
 159 698 l 1
 114 698 l 1
 146 832 l 1
 220 832 l 1
EndSplineSet
Validated: 1
EndChar

StartChar: Atilde
Encoding: 195 195 116
Width: 276
Flags: MW
HStem: 0 20 114 98 666 20 706 76
VStem: 47 42<708 770.5> 233 42
LayerCount: 2
Fore
SplineSet
274 0 m 1
 169 0 l 1
 163 114 l 1
 102 114 l 1
 92 0 l 1
 -1 0 l 1
 78 666 l 1
 195 666 l 1
 274 0 l 1
155 209 m 1
 137 485 l 1
 112 209 l 1
 155 209 l 1
233 783 m 0
 233 734 213 706 178 706 c 0
 147 706 121 749 103 749 c 0
 93 749 89 741 89 731 c 2
 89 708 l 1
 56 708 l 1
 49 721 47 733 47 746 c 0
 47 795 67 822 102 822 c 0
 133 822 158 780 177 780 c 0
 187 780 192 788 192 798 c 2
 192 821 l 1
 224 821 l 1
 230 808 233 796 233 783 c 0
EndSplineSet
Validated: 1
EndChar

StartChar: Adieresis
Encoding: 196 196 117
Width: 276
Flags: MW
HStem: 0 20 114 98 666 20 708 98
VStem: 63 57 215 57
LayerCount: 2
Fore
SplineSet
274 0 m 1
 169 0 l 1
 163 114 l 1
 102 114 l 1
 92 0 l 1
 -1 0 l 1
 78 666 l 1
 195 666 l 1
 274 0 l 1
155 209 m 1
 137 485 l 1
 112 209 l 1
 155 209 l 1
215 708 m 1
 155 708 l 1
 155 803 l 1
 215 803 l 1
 215 708 l 1
122 708 m 1
 63 708 l 1
 63 803 l 1
 122 803 l 1
 122 708 l 1
EndSplineSet
Validated: 1
EndChar

StartChar: Aring
Encoding: 197 197 118
Width: 276
Flags: MW
HStem: 0 20 114 98 770 28
VStem: 81 28<698 717 693 722.5> 192 28
LayerCount: 2
Fore
SplineSet
155 209 m 1
 137 485 l 1
 112 209 l 1
 155 209 l 1
163 705 m 0
 163 729 153 743 136 743 c 0
 119 743 109 729 109 705 c 0
 109 681 119 667 136 667 c 0
 153 667 163 681 163 705 c 0
92 666 m 1
 85 677 81 691 81 705 c 0
 81 740 103 770 136 770 c 0
 169 770 192 740 192 705 c 0
 192 691 188 677 181 666 c 1
 195 666 l 1
 274 0 l 1
 169 0 l 1
 163 114 l 1
 102 114 l 1
 92 0 l 1
 -1 0 l 1
 78 666 l 1
 92 666 l 1
EndSplineSet
Validated: 1
EndChar

StartChar: Ccedilla
Encoding: 199 199 119
Width: 287
Flags: MW
HStem: -182 28<118 160.5> -78 20 -10 98 676 98
VStem: 20 103 272 84
LayerCount: 2
Fore
SplineSet
124 -8 m 1
 64 5 20 56 20 127 c 2
 20 539 l 2
 20 620 79 676 153 676 c 0
 229 676 272 621 272 542 c 2
 272 428 l 1
 184 428 l 1
 184 545 l 2
 184 563 175 576 154 576 c 0
 133 576 125 563 125 545 c 2
 125 121 l 2
 125 103 133 90 154 90 c 0
 175 90 184 103 184 121 c 2
 184 238 l 1
 272 238 l 1
 272 124 l 2
 272 45 230 -9 156 -10 c 1
 125 -59 l 2
 131 -54 141 -53 149 -53 c 0
 184 -53 205 -79 205 -117 c 0
 205 -154 178 -182 143 -182 c 0
 131 -182 121 -178 118 -175 c 2
 118 -154 l 1
 128 -154 l 2
 145 -154 152 -146 152 -129 c 2
 152 -103 l 2
 152 -87 145 -78 128 -78 c 0
 120 -78 112 -83 104 -91 c 1
 83 -74 l 1
 124 -8 l 1
EndSplineSet
Validated: 1
EndChar

StartChar: Egrave
Encoding: 200 200 120
Width: 255
Flags: MW
HStem: 0 98 388 90 568 98 832 20
VStem: 26 178<297 388 297 666>
LayerCount: 2
Fore
SplineSet
242 0 m 1
 26 0 l 1
 26 666 l 1
 242 666 l 1
 242 570 l 1
 129 570 l 1
 129 388 l 1
 204 388 l 1
 204 297 l 1
 129 297 l 1
 129 99 l 1
 242 99 l 1
 242 0 l 1
155 698 m 1
 110 698 l 1
 48 832 l 1
 123 832 l 1
 155 698 l 1
EndSplineSet
Validated: 1
EndChar

StartChar: Eacute
Encoding: 201 201 121
Width: 255
Flags: MW
HStem: 0 98 388 90 568 98 832 20
VStem: 26 178<297 388 297 666>
LayerCount: 2
Fore
SplineSet
242 0 m 1
 26 0 l 1
 26 666 l 1
 242 666 l 1
 242 570 l 1
 129 570 l 1
 129 388 l 1
 204 388 l 1
 204 297 l 1
 129 297 l 1
 129 99 l 1
 242 99 l 1
 242 0 l 1
210 832 m 1
 149 698 l 1
 104 698 l 1
 136 832 l 1
 210 832 l 1
EndSplineSet
Validated: 1
EndChar

StartChar: Ecircumflex
Encoding: 202 202 122
Width: 255
Flags: W
HStem: 0 98 388 90 568 98 698 134<61.5 159 107 200>
VStem: 26 178<297 388 297 666>
LayerCount: 2
Fore
SplineSet
242 0 m 1
 26 0 l 1
 26 666 l 1
 242 666 l 1
 242 570 l 1
 129 570 l 1
 129 388 l 1
 204 388 l 1
 204 297 l 1
 129 297 l 1
 129 99 l 1
 242 99 l 1
 242 0 l 1
229 706 m 1
 218 701 205 698 195 698 c 0
 164 698 140 718 131 771 c 1
 122 718 98 698 67 698 c 0
 56 698 48 701 37 706 c 1
 37 732 l 1
 60 732 94 763 107 832 c 1
 159 832 l 1
 172 763 206 732 229 732 c 1
 229 706 l 1
EndSplineSet
Validated: 1
EndChar

StartChar: Edieresis
Encoding: 203 203 123
Width: 255
Flags: MW
HStem: 0 98 388 90 568 98 708 98
VStem: 26 178<297 388 297 666> 59 57 211 57
LayerCount: 2
Fore
SplineSet
242 0 m 1xe8
 26 0 l 1
 26 666 l 1
 242 666 l 1
 242 570 l 1
 129 570 l 1
 129 388 l 1
 204 388 l 1
 204 297 l 1
 129 297 l 1
 129 99 l 1
 242 99 l 1
 242 0 l 1xe8
211 708 m 1x16
 151 708 l 1
 151 803 l 1
 211 803 l 1
 211 708 l 1x16
118 708 m 1
 59 708 l 1
 59 803 l 1
 118 803 l 1
 118 708 l 1
EndSplineSet
Validated: 1
EndChar

StartChar: Igrave
Encoding: 204 204 124
Width: 155
Flags: MW
HStem: 0 20 666 20 832 20
VStem: 26 103<0 666>
LayerCount: 2
Fore
SplineSet
129 0 m 1
 26 0 l 1
 26 666 l 1
 129 666 l 1
 129 0 l 1
101 698 m 1
 56 698 l 1
 -6 832 l 1
 69 832 l 1
 101 698 l 1
EndSplineSet
Validated: 1
EndChar

StartChar: Iacute
Encoding: 205 205 125
Width: 155
Flags: MW
HStem: 0 20 666 20 832 20
VStem: 26 103<0 666>
LayerCount: 2
Fore
SplineSet
129 0 m 1
 26 0 l 1
 26 666 l 1
 129 666 l 1
 129 0 l 1
160 832 m 1
 99 698 l 1
 54 698 l 1
 86 832 l 1
 160 832 l 1
EndSplineSet
Validated: 1
EndChar

StartChar: Icircumflex
Encoding: 206 206 126
Width: 155
Flags: MW
HStem: 0 20 666 20 698 134<10.5 108 56 149>
VStem: 26 103<0 666>
LayerCount: 2
Fore
SplineSet
129 0 m 1
 26 0 l 1
 26 666 l 1
 129 666 l 1
 129 0 l 1
178 706 m 1
 167 701 154 698 144 698 c 0
 113 698 89 718 80 771 c 1
 71 718 47 698 16 698 c 0
 5 698 -3 701 -14 706 c 1
 -14 732 l 1
 9 732 43 763 56 832 c 1
 108 832 l 1
 121 763 155 732 178 732 c 1
 178 706 l 1
EndSplineSet
Validated: 1
EndChar

StartChar: Idieresis
Encoding: 207 207 127
Width: 155
Flags: MW
HStem: 0 20 666 20 708 98
VStem: 2 57 26 103<0 666> 154 57
LayerCount: 2
Fore
SplineSet
129 0 m 1xc8
 26 0 l 1
 26 666 l 1
 129 666 l 1
 129 0 l 1xc8
154 708 m 1x34
 94 708 l 1
 94 803 l 1
 154 803 l 1
 154 708 l 1x34
61 708 m 1
 2 708 l 1
 2 803 l 1
 61 803 l 1
 61 708 l 1
EndSplineSet
Validated: 1
EndChar

StartChar: Ntilde
Encoding: 209 209 128
Width: 321
Flags: MW
HStem: 0 20 666 20 706 76
VStem: 25 84 70 42<708 770.5> 256 42 296 84
LayerCount: 2
Fore
SplineSet
296 0 m 1xd2
 211 0 l 1
 136 301 l 1
 113 392 l 1
 113 0 l 1
 25 0 l 1
 25 666 l 1
 123 666 l 1
 189 367 l 1
 209 274 l 1
 209 666 l 1
 296 666 l 1
 296 0 l 1xd2
256 783 m 0x2c
 256 734 236 706 201 706 c 0
 170 706 144 749 126 749 c 0
 116 749 112 741 112 731 c 2
 112 708 l 1
 79 708 l 1
 72 721 70 733 70 746 c 0
 70 795 90 822 125 822 c 0
 156 822 181 780 200 780 c 0
 210 780 215 788 215 798 c 2
 215 821 l 1
 247 821 l 1
 253 808 256 796 256 783 c 0x2c
EndSplineSet
Validated: 1
EndChar

StartChar: Ograve
Encoding: 210 210 129
Width: 303
Flags: MW
HStem: -10 98 676 98 832 20
VStem: 21 103 281 103
LayerCount: 2
Fore
SplineSet
281 124 m 2
 281 44 224 -10 151 -10 c 0
 79 -10 21 44 21 124 c 2
 21 542 l 2
 21 621 79 676 151 676 c 0
 224 676 281 621 281 542 c 2
 281 124 l 2
176 117 m 2
 176 549 l 2
 176 566 166 576 151 576 c 0
 136 576 126 566 126 549 c 2
 126 117 l 2
 126 100 136 90 151 90 c 0
 166 90 176 100 176 117 c 2
174 698 m 1
 129 698 l 1
 67 832 l 1
 142 832 l 1
 174 698 l 1
EndSplineSet
Validated: 1
EndChar

StartChar: Oacute
Encoding: 211 211 130
Width: 303
Flags: MW
HStem: -10 98 676 98 832 20
VStem: 21 103 281 103
LayerCount: 2
Fore
SplineSet
281 124 m 2
 281 44 224 -10 151 -10 c 0
 79 -10 21 44 21 124 c 2
 21 542 l 2
 21 621 79 676 151 676 c 0
 224 676 281 621 281 542 c 2
 281 124 l 2
176 117 m 2
 176 549 l 2
 176 566 166 576 151 576 c 0
 136 576 126 566 126 549 c 2
 126 117 l 2
 126 100 136 90 151 90 c 0
 166 90 176 100 176 117 c 2
232 832 m 1
 171 698 l 1
 126 698 l 1
 158 832 l 1
 232 832 l 1
EndSplineSet
Validated: 1
EndChar

StartChar: Ocircumflex
Encoding: 212 212 131
Width: 303
Flags: MW
HStem: -10 98 676 98 698 134<81.5 179 127 220>
VStem: 21 103 281 103
LayerCount: 2
Fore
SplineSet
281 124 m 2xd8
 281 44 224 -10 151 -10 c 0
 79 -10 21 44 21 124 c 2
 21 542 l 2
 21 621 79 676 151 676 c 0
 224 676 281 621 281 542 c 2
 281 124 l 2xd8
176 117 m 2
 176 549 l 2
 176 566 166 576 151 576 c 0
 136 576 126 566 126 549 c 2
 126 117 l 2
 126 100 136 90 151 90 c 0
 166 90 176 100 176 117 c 2
249 706 m 1x20
 238 701 225 698 215 698 c 0
 184 698 160 718 151 771 c 1
 142 718 118 698 87 698 c 0
 76 698 68 701 57 706 c 1
 57 732 l 1
 80 732 114 763 127 832 c 1
 179 832 l 1
 192 763 226 732 249 732 c 1
 249 706 l 1x20
EndSplineSet
Validated: 1
EndChar

StartChar: Otilde
Encoding: 213 213 132
Width: 303
Flags: MW
HStem: -10 98 676 98 706 76
VStem: 21 103 57 42<708 770.5> 243 42 281 103
LayerCount: 2
Fore
SplineSet
281 124 m 2xd2
 281 44 224 -10 151 -10 c 0
 79 -10 21 44 21 124 c 2
 21 542 l 2
 21 621 79 676 151 676 c 0
 224 676 281 621 281 542 c 2
 281 124 l 2xd2
176 117 m 2
 176 549 l 2
 176 566 166 576 151 576 c 0
 136 576 126 566 126 549 c 2
 126 117 l 2
 126 100 136 90 151 90 c 0
 166 90 176 100 176 117 c 2
243 783 m 0x2c
 243 734 223 706 188 706 c 0
 157 706 131 749 113 749 c 0
 103 749 99 741 99 731 c 2
 99 708 l 1
 66 708 l 1
 59 721 57 733 57 746 c 0
 57 795 77 822 112 822 c 0
 143 822 168 780 187 780 c 0
 197 780 202 788 202 798 c 2
 202 821 l 1
 234 821 l 1
 240 808 243 796 243 783 c 0x2c
EndSplineSet
Validated: 1
EndChar

StartChar: Oslash
Encoding: 216 216 133
Width: 303
Flags: MW
HStem: -10 98 676 98
VStem: 21 103 281 103
LayerCount: 2
Fore
SplineSet
176 326 m 1
 125 182 l 1
 125 117 l 2
 125 100 136 90 151 90 c 0
 165 90 176 100 176 117 c 2
 176 326 l 1
125 340 m 1
 176 484 l 1
 176 549 l 2
 176 566 165 576 151 576 c 0
 136 576 125 566 125 549 c 2
 125 340 l 1
30 74 m 1
 24 89 21 106 21 124 c 2
 21 542 l 2
 21 622 78 676 151 676 c 0
 184 676 213 665 237 646 c 1
 255 692 l 1
 301 673 l 1
 271 593 l 1
 278 578 281 561 281 542 c 2
 281 124 l 2
 281 44 223 -10 151 -10 c 0
 118 -10 88 1 66 21 c 1
 47 -26 l 1
 1 -7 l 1
 30 74 l 1
EndSplineSet
Validated: 1
EndChar

StartChar: Ugrave
Encoding: 217 217 134
Width: 301
Flags: MW
HStem: -10 98 666 20 832 20
VStem: 24 103<121 666> 277 103
LayerCount: 2
Fore
SplineSet
277 121 m 2
 277 45 224 -10 152 -10 c 0
 80 -10 24 45 24 121 c 2
 24 666 l 1
 127 666 l 1
 127 117 l 2
 127 100 138 90 152 90 c 0
 167 90 178 100 178 117 c 2
 178 666 l 1
 277 666 l 1
 277 121 l 2
175 698 m 1
 130 698 l 1
 68 832 l 1
 143 832 l 1
 175 698 l 1
EndSplineSet
Validated: 1
EndChar

StartChar: Uacute
Encoding: 218 218 135
Width: 301
Flags: W
HStem: -10 98 666 20 832 20
VStem: 24 103<121 666> 277 103
LayerCount: 2
Fore
SplineSet
277 121 m 2
 277 45 224 -10 152 -10 c 0
 80 -10 24 45 24 121 c 2
 24 666 l 1
 127 666 l 1
 127 117 l 2
 127 100 138 90 152 90 c 0
 167 90 178 100 178 117 c 2
 178 666 l 1
 277 666 l 1
 277 121 l 2
236 832 m 1
 175 698 l 1
 130 698 l 1
 162 832 l 1
 236 832 l 1
EndSplineSet
Validated: 1
EndChar

StartChar: Ucircumflex
Encoding: 219 219 136
Width: 301
Flags: W
HStem: -10 98 666 20 698 134<83.5 181 129 222>
VStem: 24 103<121 666> 277 103
LayerCount: 2
Fore
SplineSet
277 121 m 2
 277 45 224 -10 152 -10 c 0
 80 -10 24 45 24 121 c 2
 24 666 l 1
 127 666 l 1
 127 117 l 2
 127 100 138 90 152 90 c 0
 167 90 178 100 178 117 c 2
 178 666 l 1
 277 666 l 1
 277 121 l 2
251 706 m 1
 240 701 227 698 217 698 c 0
 186 698 162 718 153 771 c 1
 144 718 120 698 89 698 c 0
 78 698 70 701 59 706 c 1
 59 732 l 1
 82 732 116 763 129 832 c 1
 181 832 l 1
 194 763 228 732 251 732 c 1
 251 706 l 1
EndSplineSet
Validated: 1
EndChar

StartChar: Udieresis
Encoding: 220 220 137
Width: 301
Flags: MW
HStem: -10 98 666 20 708 98
VStem: 24 103<121 666> 77 57 229 57 277 103
LayerCount: 2
Fore
SplineSet
277 121 m 2xd2
 277 45 224 -10 152 -10 c 0
 80 -10 24 45 24 121 c 2
 24 666 l 1
 127 666 l 1
 127 117 l 2
 127 100 138 90 152 90 c 0
 167 90 178 100 178 117 c 2
 178 666 l 1
 277 666 l 1
 277 121 l 2xd2
229 708 m 1x2c
 169 708 l 1
 169 803 l 1
 229 803 l 1
 229 708 l 1x2c
136 708 m 1
 77 708 l 1
 77 803 l 1
 136 803 l 1
 136 708 l 1
EndSplineSet
Validated: 1
EndChar

StartChar: germandbls
Encoding: 223 223 138
Width: 263
Flags: MW
HStem: -8 58 397 82 666 82
VStem: 25 84<0 524 524 542 0 567.5> 241 84
LayerCount: 2
Fore
SplineSet
241 104 m 2
 241 32 206 -8 158 -8 c 0
 148 -8 137 -4 131 2 c 1
 131 53 l 1
 147 53 156 64 156 91 c 2
 156 273 l 2
 156 299 153 316 133 316 c 1
 133 397 l 1
 156 397 162 415 162 440 c 2
 162 542 l 2
 162 570 153 585 137 585 c 0
 120 585 109 570 109 542 c 2
 109 0 l 1
 25 0 l 1
 25 524 l 2
 25 611 65 666 132 666 c 0
 201 666 238 611 238 524 c 2
 238 446 l 2
 238 404 223 368 199 351 c 1
 227 333 241 304 241 256 c 2
 241 104 l 2
EndSplineSet
Validated: 1
EndChar

StartChar: agrave
Encoding: 224 224 139
Width: 235
Flags: MW
HStem: -8 82 500 82 672 20
VStem: 12 84 210 84
LayerCount: 2
Fore
SplineSet
226 -8 m 1
 207 -8 l 2
 181 -8 163 7 151 36 c 1
 140 7 117 -8 89 -8 c 0
 42 -8 12 34 12 104 c 2
 12 145 l 2
 12 226 58 272 130 314 c 1
 130 395 l 2
 130 408 124 418 114 418 c 0
 104 418 99 408 99 395 c 2
 99 339 l 1
 22 339 l 1
 22 383 l 2
 22 452 58 500 119 500 c 0
 177 500 210 451 210 381 c 2
 210 86 l 2
 210 73 213 64 226 62 c 1
 226 -8 l 1
130 96 m 2
 130 234 l 1
 105 215 92 191 92 160 c 2
 92 98 l 2
 92 82 99 70 111 70 c 0
 123 70 130 82 130 96 c 2
143 538 m 1
 98 538 l 1
 36 672 l 1
 111 672 l 1
 143 538 l 1
EndSplineSet
Validated: 1
EndChar

StartChar: aacute
Encoding: 225 225 140
Width: 235
Flags: MW
HStem: -8 82 500 82 672 20
VStem: 12 84 210 84
LayerCount: 2
Fore
SplineSet
226 -8 m 1
 207 -8 l 2
 181 -8 163 7 151 36 c 1
 140 7 117 -8 89 -8 c 0
 42 -8 12 34 12 104 c 2
 12 145 l 2
 12 226 58 272 130 314 c 1
 130 395 l 2
 130 408 124 418 114 418 c 0
 104 418 99 408 99 395 c 2
 99 339 l 1
 22 339 l 1
 22 383 l 2
 22 452 58 500 119 500 c 0
 177 500 210 451 210 381 c 2
 210 86 l 2
 210 73 213 64 226 62 c 1
 226 -8 l 1
130 96 m 2
 130 234 l 1
 105 215 92 191 92 160 c 2
 92 98 l 2
 92 82 99 70 111 70 c 0
 123 70 130 82 130 96 c 2
202 672 m 1
 141 538 l 1
 96 538 l 1
 128 672 l 1
 202 672 l 1
EndSplineSet
Validated: 1
EndChar

StartChar: acircumflex
Encoding: 226 226 141
Width: 235
Flags: MW
HStem: -8 82 500 82 538 134<49.5 147 95 188>
VStem: 12 84 210 84
LayerCount: 2
Fore
SplineSet
226 -8 m 1xd8
 207 -8 l 2
 181 -8 163 7 151 36 c 1
 140 7 117 -8 89 -8 c 0
 42 -8 12 34 12 104 c 2
 12 145 l 2
 12 226 58 272 130 314 c 1
 130 395 l 2
 130 408 124 418 114 418 c 0
 104 418 99 408 99 395 c 2
 99 339 l 1
 22 339 l 1
 22 383 l 2
 22 452 58 500 119 500 c 0
 177 500 210 451 210 381 c 2
 210 86 l 2
 210 73 213 64 226 62 c 1
 226 -8 l 1xd8
130 96 m 2
 130 234 l 1
 105 215 92 191 92 160 c 2
 92 98 l 2
 92 82 99 70 111 70 c 0
 123 70 130 82 130 96 c 2
217 546 m 1x20
 206 541 193 538 183 538 c 0
 152 538 128 558 119 611 c 1
 110 558 86 538 55 538 c 0
 44 538 36 541 25 546 c 1
 25 572 l 1
 48 572 82 603 95 672 c 1
 147 672 l 1
 160 603 194 572 217 572 c 1
 217 546 l 1x20
EndSplineSet
Validated: 1
EndChar

StartChar: atilde
Encoding: 227 227 142
Width: 235
Flags: MW
HStem: -8 82 500 82 546 76
VStem: 12 84 24 42<548 610.5> 210 42 210 84
LayerCount: 2
Fore
SplineSet
226 -8 m 1xd2
 207 -8 l 2
 181 -8 163 7 151 36 c 1
 140 7 117 -8 89 -8 c 0
 42 -8 12 34 12 104 c 2
 12 145 l 2
 12 226 58 272 130 314 c 1
 130 395 l 2
 130 408 124 418 114 418 c 0
 104 418 99 408 99 395 c 2
 99 339 l 1
 22 339 l 1
 22 383 l 2
 22 452 58 500 119 500 c 0
 177 500 210 451 210 381 c 2
 210 86 l 2
 210 73 213 64 226 62 c 1
 226 -8 l 1xd2
130 96 m 2
 130 234 l 1
 105 215 92 191 92 160 c 2
 92 98 l 2
 92 82 99 70 111 70 c 0
 123 70 130 82 130 96 c 2
210 623 m 0x2c
 210 574 190 546 155 546 c 0
 124 546 98 589 80 589 c 0
 70 589 66 581 66 571 c 2
 66 548 l 1
 33 548 l 1
 26 561 24 573 24 586 c 0
 24 635 44 662 79 662 c 0
 110 662 135 620 154 620 c 0
 164 620 169 628 169 638 c 2
 169 661 l 1
 201 661 l 1
 207 648 210 636 210 623 c 0x2c
EndSplineSet
Validated: 1
EndChar

StartChar: adieresis
Encoding: 228 228 143
Width: 235
Flags: MW
HStem: -8 82 500 82 548 98
VStem: 12 84 43 57 195 57 210 84
LayerCount: 2
Fore
SplineSet
226 -8 m 1xd2
 207 -8 l 2
 181 -8 163 7 151 36 c 1
 140 7 117 -8 89 -8 c 0
 42 -8 12 34 12 104 c 2
 12 145 l 2
 12 226 58 272 130 314 c 1
 130 395 l 2
 130 408 124 418 114 418 c 0
 104 418 99 408 99 395 c 2
 99 339 l 1
 22 339 l 1
 22 383 l 2
 22 452 58 500 119 500 c 0
 177 500 210 451 210 381 c 2
 210 86 l 2
 210 73 213 64 226 62 c 1
 226 -8 l 1xd2
130 96 m 2
 130 234 l 1
 105 215 92 191 92 160 c 2
 92 98 l 2
 92 82 99 70 111 70 c 0
 123 70 130 82 130 96 c 2
195 548 m 1x2c
 135 548 l 1
 135 643 l 1
 195 643 l 1
 195 548 l 1x2c
102 548 m 1
 43 548 l 1
 43 643 l 1
 102 643 l 1
 102 548 l 1
EndSplineSet
Validated: 1
EndChar

StartChar: aring
Encoding: 229 229 144
Width: 235
Flags: MW
HStem: -8 82 500 82 542 28<108.5 125.5 108.5 133> 673 28
VStem: 12 84 62 28 172 28 210 84
LayerCount: 2
Fore
SplineSet
226 -8 m 1xc9
 207 -8 l 2
 181 -8 163 7 151 36 c 1
 140 7 117 -8 89 -8 c 0
 42 -8 12 34 12 104 c 2
 12 145 l 2
 12 226 58 272 130 314 c 1
 130 395 l 2
 130 408 124 418 114 418 c 0
 104 418 99 408 99 395 c 2
 99 339 l 1
 22 339 l 1
 22 383 l 2
 22 452 58 500 119 500 c 0
 177 500 210 451 210 381 c 2
 210 86 l 2
 210 73 213 64 226 62 c 1
 226 -8 l 1xc9
130 96 m 2
 130 234 l 1
 105 215 92 191 92 160 c 2
 92 98 l 2
 92 82 99 70 111 70 c 0
 123 70 130 82 130 96 c 2
172 608 m 0x36
 172 573 149 542 117 542 c 0
 84 542 62 573 62 608 c 0
 62 642 84 673 117 673 c 0
 149 673 172 642 172 608 c 0x36
144 608 m 0
 144 632 134 646 117 646 c 0
 100 646 89 632 89 608 c 0
 89 584 100 570 117 570 c 0
 134 570 144 584 144 608 c 0
EndSplineSet
Validated: 1
EndChar

StartChar: ae
Encoding: 230 230 145
Width: 348
Flags: MW
HStem: -8 82 287 58 500 82
VStem: 12 84 214 84 330 76
LayerCount: 2
Fore
SplineSet
330 112 m 2
 330 41 293 -8 236 -8 c 0
 211 -8 185 3 170 25 c 1
 154 3 127 -8 95 -8 c 0
 41 -8 12 36 12 104 c 2
 12 145 l 2
 12 226 58 272 130 314 c 1
 130 393 l 2
 130 407 122 416 113 416 c 0
 103 416 96 407 96 393 c 2
 96 339 l 1
 20 339 l 1
 20 383 l 2
 20 452 59 500 111 500 c 0
 137 500 154 488 170 466 c 1
 185 488 211 500 236 500 c 0
 293 500 330 451 330 380 c 2
 330 228 l 1
 214 228 l 1
 214 101 l 2
 214 87 220 75 235 75 c 0
 249 75 255 87 255 101 c 2
 255 181 l 1
 330 181 l 1
 330 112 l 2
253 287 m 1
 253 391 l 2
 253 404 247 417 234 417 c 0
 222 417 214 404 214 391 c 2
 214 287 l 1
 253 287 l 1
130 98 m 2
 130 234 l 1
 105 215 92 191 92 160 c 2
 92 99 l 2
 92 83 99 72 111 72 c 0
 123 72 130 83 130 98 c 2
EndSplineSet
Validated: 1
EndChar

StartChar: ccedilla
Encoding: 231 231 146
Width: 231
Flags: MW
HStem: -182 28<92 134.5> -78 20 500 82
VStem: 21 84 216 68
LayerCount: 2
Fore
SplineSet
101 -5 m 1
 55 4 21 49 21 113 c 2
 21 379 l 2
 21 452 66 500 122 500 c 0
 179 500 216 452 216 379 c 2
 216 309 l 1
 146 309 l 1
 146 390 l 2
 146 408 137 418 126 418 c 0
 114 418 104 408 104 390 c 2
 104 101 l 2
 104 83 114 73 126 73 c 0
 137 73 146 83 146 101 c 2
 146 183 l 1
 216 183 l 1
 216 113 l 2
 216 44 184 -2 133 -7 c 1
 100 -59 l 2
 105 -54 116 -53 123 -53 c 0
 158 -53 180 -79 180 -117 c 0
 180 -154 152 -182 117 -182 c 0
 105 -182 96 -178 92 -175 c 1
 92 -154 l 1
 102 -154 l 2
 119 -154 126 -146 126 -129 c 2
 126 -103 l 2
 126 -87 119 -78 102 -78 c 0
 95 -78 87 -83 79 -91 c 1
 57 -74 l 1
 101 -5 l 1
EndSplineSet
Validated: 1
EndChar

StartChar: egrave
Encoding: 232 232 147
Width: 239
Flags: MW
HStem: -8 82 287 58 500 82 672 20
VStem: 21 84<112 228 287 380 380 392> 220 76
LayerCount: 2
Fore
SplineSet
220 112 m 2
 220 41 179 -8 122 -8 c 0
 66 -8 21 41 21 112 c 2
 21 380 l 2
 21 450 66 500 122 500 c 0
 179 500 220 451 220 380 c 2
 220 228 l 1
 105 228 l 1
 105 99 l 2
 105 86 111 73 125 73 c 0
 140 73 145 86 145 99 c 2
 145 181 l 1
 220 181 l 1
 220 112 l 2
144 287 m 1
 144 392 l 2
 144 406 137 418 125 418 c 0
 112 418 105 406 105 392 c 2
 105 287 l 1
 144 287 l 1
147 538 m 1
 102 538 l 1
 40 672 l 1
 115 672 l 1
 147 538 l 1
EndSplineSet
Validated: 1
EndChar

StartChar: eacute
Encoding: 233 233 148
Width: 239
Flags: MW
HStem: -8 82 287 58 500 82 672 20
VStem: 21 84<112 228 287 380 380 392> 220 76
LayerCount: 2
Fore
SplineSet
220 112 m 2
 220 41 179 -8 122 -8 c 0
 66 -8 21 41 21 112 c 2
 21 380 l 2
 21 450 66 500 122 500 c 0
 179 500 220 451 220 380 c 2
 220 228 l 1
 105 228 l 1
 105 99 l 2
 105 86 111 73 125 73 c 0
 140 73 145 86 145 99 c 2
 145 181 l 1
 220 181 l 1
 220 112 l 2
144 287 m 1
 144 392 l 2
 144 406 137 418 125 418 c 0
 112 418 105 406 105 392 c 2
 105 287 l 1
 144 287 l 1
205 672 m 1
 144 538 l 1
 99 538 l 1
 131 672 l 1
 205 672 l 1
EndSplineSet
Validated: 1
EndChar

StartChar: ecircumflex
Encoding: 234 234 149
Width: 239
Flags: MW
HStem: -8 82 287 58 500 82 538 134<51.5 149 97 190>
VStem: 21 84<112 228 287 380 380 392> 220 76
LayerCount: 2
Fore
SplineSet
220 112 m 2xec
 220 41 179 -8 122 -8 c 0
 66 -8 21 41 21 112 c 2
 21 380 l 2
 21 450 66 500 122 500 c 0
 179 500 220 451 220 380 c 2
 220 228 l 1
 105 228 l 1
 105 99 l 2
 105 86 111 73 125 73 c 0
 140 73 145 86 145 99 c 2
 145 181 l 1
 220 181 l 1
 220 112 l 2xec
144 287 m 1
 144 392 l 2
 144 406 137 418 125 418 c 0
 112 418 105 406 105 392 c 2
 105 287 l 1
 144 287 l 1
219 546 m 1x10
 208 541 195 538 185 538 c 0
 154 538 130 558 121 611 c 1
 112 558 88 538 57 538 c 0
 46 538 38 541 27 546 c 1
 27 572 l 1
 50 572 84 603 97 672 c 1
 149 672 l 1
 162 603 196 572 219 572 c 1
 219 546 l 1x10
EndSplineSet
Validated: 1
EndChar

StartChar: edieresis
Encoding: 235 235 150
Width: 239
Flags: MW
HStem: -8 82 287 58 500 82 548 98
VStem: 21 84<112 228 287 380 380 392> 46 57 198 57 220 76
LayerCount: 2
Fore
SplineSet
220 112 m 2xe9
 220 41 179 -8 122 -8 c 0
 66 -8 21 41 21 112 c 2
 21 380 l 2
 21 450 66 500 122 500 c 0
 179 500 220 451 220 380 c 2
 220 228 l 1
 105 228 l 1
 105 99 l 2
 105 86 111 73 125 73 c 0
 140 73 145 86 145 99 c 2
 145 181 l 1
 220 181 l 1
 220 112 l 2xe9
144 287 m 1
 144 392 l 2
 144 406 137 418 125 418 c 0
 112 418 105 406 105 392 c 2
 105 287 l 1
 144 287 l 1
198 548 m 1x16
 138 548 l 1
 138 643 l 1
 198 643 l 1
 198 548 l 1x16
105 548 m 1
 46 548 l 1
 46 643 l 1
 105 643 l 1
 105 548 l 1
EndSplineSet
Validated: 1
EndChar

StartChar: igrave
Encoding: 236 236 151
Width: 134
Flags: MW
HStem: 0 20 491 20 672 20
VStem: 25 84<0 491>
LayerCount: 2
Fore
SplineSet
109 0 m 1
 25 0 l 1
 25 491 l 1
 109 491 l 1
 109 0 l 1
90 538 m 1
 45 538 l 1
 -17 672 l 1
 58 672 l 1
 90 538 l 1
EndSplineSet
Validated: 1
EndChar

StartChar: iacute
Encoding: 237 237 152
Width: 134
Flags: MW
HStem: 0 20 491 20 672 20
VStem: 25 84<0 491>
LayerCount: 2
Fore
SplineSet
109 0 m 1
 25 0 l 1
 25 491 l 1
 109 491 l 1
 109 0 l 1
151 672 m 1
 90 538 l 1
 45 538 l 1
 77 672 l 1
 151 672 l 1
EndSplineSet
Validated: 1
EndChar

StartChar: icircumflex
Encoding: 238 238 153
Width: 134
Flags: MW
HStem: 0 20 491 20 538 134<-3.5 94 42 135>
VStem: 25 84<0 491>
LayerCount: 2
Fore
SplineSet
109 0 m 1
 25 0 l 1
 25 491 l 1
 109 491 l 1
 109 0 l 1
164 546 m 1
 153 541 140 538 130 538 c 0
 99 538 75 558 66 611 c 1
 57 558 33 538 2 538 c 0
 -9 538 -17 541 -28 546 c 1
 -28 572 l 1
 -5 572 29 603 42 672 c 1
 94 672 l 1
 107 603 141 572 164 572 c 1
 164 546 l 1
EndSplineSet
Validated: 1
EndChar

StartChar: idieresis
Encoding: 239 239 154
Width: 134
Flags: MW
HStem: 0 20 491 20 548 98
VStem: -10 57 25 84<0 491> 142 57
LayerCount: 2
Fore
SplineSet
109 0 m 1xc8
 25 0 l 1
 25 491 l 1
 109 491 l 1
 109 0 l 1xc8
142 548 m 1x34
 82 548 l 1
 82 643 l 1
 142 643 l 1
 142 548 l 1x34
49 548 m 1
 -10 548 l 1
 -10 643 l 1
 49 643 l 1
 49 548 l 1
EndSplineSet
Validated: 1
EndChar

StartChar: eth
Encoding: 240 240 155
Width: 247
Flags: MW
HStem: -8 82 489 76 666 50
VStem: 21 84<113 392> 226 84
LayerCount: 2
Fore
SplineSet
141 97 m 2
 141 392 l 2
 141 406 133 416 123 416 c 0
 113 416 105 406 105 392 c 2
 105 97 l 2
 105 84 112 73 123 73 c 0
 133 73 141 84 141 97 c 2
129 541 m 1
 93 511 l 1
 75 561 l 1
 106 586 l 1
 91 606 70 617 43 617 c 1
 43 666 l 1
 56 666 l 2
 101 666 134 652 160 628 c 1
 197 658 l 1
 214 608 l 1
 190 589 l 1
 215 545 226 488 226 429 c 2
 226 113 l 2
 226 39 180 -8 123 -8 c 0
 66 -8 21 39 21 113 c 2
 21 399 l 2
 21 447 50 489 87 489 c 0
 109 489 126 476 141 456 c 1
 141 488 138 517 129 541 c 1
EndSplineSet
Validated: 1
EndChar

StartChar: ntilde
Encoding: 241 241 156
Width: 253
Flags: MW
HStem: 0 20 500 82 546 76
VStem: 25 84<0 392 0 491> 33 42<548 610.5> 219 42 230 84
LayerCount: 2
Fore
SplineSet
230 0 m 1xd2
 145 0 l 1
 145 392 l 2
 145 406 137 416 127 416 c 0
 117 416 109 406 109 392 c 2
 109 0 l 1
 25 0 l 1
 25 491 l 1
 103 491 l 1
 107 455 l 1
 117 482 142 500 166 500 c 0
 204 500 230 463 230 413 c 2
 230 0 l 1xd2
219 623 m 0x2c
 219 574 199 546 164 546 c 0
 133 546 107 589 89 589 c 0
 79 589 75 581 75 571 c 2
 75 548 l 1
 42 548 l 1
 35 561 33 573 33 586 c 0
 33 635 53 662 88 662 c 0
 119 662 144 620 163 620 c 0
 173 620 178 628 178 638 c 2
 178 661 l 1
 210 661 l 1
 216 648 219 636 219 623 c 0x2c
EndSplineSet
Validated: 1
EndChar

StartChar: ograve
Encoding: 242 242 157
Width: 245
Flags: MW
HStem: -8 82 500 82 672 20
VStem: 21 84<113 378 378 394> 224 84
LayerCount: 2
Fore
SplineSet
224 113 m 2
 224 39 179 -8 123 -8 c 0
 66 -8 21 39 21 113 c 2
 21 378 l 2
 21 452 66 500 123 500 c 0
 179 500 224 452 224 378 c 2
 224 113 l 2
140 97 m 2
 140 394 l 2
 140 407 133 418 123 418 c 0
 112 418 105 407 105 394 c 2
 105 97 l 2
 105 84 112 73 123 73 c 0
 133 73 140 84 140 97 c 2
146 538 m 1
 101 538 l 1
 39 672 l 1
 114 672 l 1
 146 538 l 1
EndSplineSet
Validated: 1
EndChar

StartChar: oacute
Encoding: 243 243 158
Width: 245
Flags: MW
HStem: -8 82 500 82 672 20
VStem: 21 84<113 378 378 394> 224 84
LayerCount: 2
Fore
SplineSet
224 113 m 2
 224 39 179 -8 123 -8 c 0
 66 -8 21 39 21 113 c 2
 21 378 l 2
 21 452 66 500 123 500 c 0
 179 500 224 452 224 378 c 2
 224 113 l 2
140 97 m 2
 140 394 l 2
 140 407 133 418 123 418 c 0
 112 418 105 407 105 394 c 2
 105 97 l 2
 105 84 112 73 123 73 c 0
 133 73 140 84 140 97 c 2
207 672 m 1
 146 538 l 1
 101 538 l 1
 133 672 l 1
 207 672 l 1
EndSplineSet
Validated: 1
EndChar

StartChar: ocircumflex
Encoding: 244 244 159
Width: 245
Flags: MW
HStem: -8 82 500 82 538 134<54.5 152 100 193>
VStem: 21 84<113 378 378 394> 224 84
LayerCount: 2
Fore
SplineSet
224 113 m 2xd8
 224 39 179 -8 123 -8 c 0
 66 -8 21 39 21 113 c 2
 21 378 l 2
 21 452 66 500 123 500 c 0
 179 500 224 452 224 378 c 2
 224 113 l 2xd8
140 97 m 2
 140 394 l 2
 140 407 133 418 123 418 c 0
 112 418 105 407 105 394 c 2
 105 97 l 2
 105 84 112 73 123 73 c 0
 133 73 140 84 140 97 c 2
222 546 m 1x20
 211 541 198 538 188 538 c 0
 157 538 133 558 124 611 c 1
 115 558 91 538 60 538 c 0
 49 538 41 541 30 546 c 1
 30 572 l 1
 53 572 87 603 100 672 c 1
 152 672 l 1
 165 603 199 572 222 572 c 1
 222 546 l 1x20
EndSplineSet
Validated: 1
EndChar

StartChar: otilde
Encoding: 245 245 160
Width: 245
Flags: MW
HStem: -8 82 500 82 546 76
VStem: 21 84<113 378 378 394> 30 42<548 610.5> 216 42 224 84
LayerCount: 2
Fore
SplineSet
224 113 m 2xd2
 224 39 179 -8 123 -8 c 0
 66 -8 21 39 21 113 c 2
 21 378 l 2
 21 452 66 500 123 500 c 0
 179 500 224 452 224 378 c 2
 224 113 l 2xd2
140 97 m 2
 140 394 l 2
 140 407 133 418 123 418 c 0
 112 418 105 407 105 394 c 2
 105 97 l 2
 105 84 112 73 123 73 c 0
 133 73 140 84 140 97 c 2
216 623 m 0x2c
 216 574 196 546 161 546 c 0
 130 546 104 589 86 589 c 0
 76 589 72 581 72 571 c 2
 72 548 l 1
 39 548 l 1
 32 561 30 573 30 586 c 0
 30 635 50 662 85 662 c 0
 116 662 141 620 160 620 c 0
 170 620 175 628 175 638 c 2
 175 661 l 1
 207 661 l 1
 213 648 216 636 216 623 c 0x2c
EndSplineSet
Validated: 1
EndChar

StartChar: odieresis
Encoding: 246 246 161
Width: 245
Flags: MW
HStem: -8 82 500 82 548 98
VStem: 21 84<113 378 378 394> 47 57 199 57 224 84
LayerCount: 2
Fore
SplineSet
224 113 m 2xd2
 224 39 179 -8 123 -8 c 0
 66 -8 21 39 21 113 c 2
 21 378 l 2
 21 452 66 500 123 500 c 0
 179 500 224 452 224 378 c 2
 224 113 l 2xd2
140 97 m 2
 140 394 l 2
 140 407 133 418 123 418 c 0
 112 418 105 407 105 394 c 2
 105 97 l 2
 105 84 112 73 123 73 c 0
 133 73 140 84 140 97 c 2
199 548 m 1x2c
 139 548 l 1
 139 643 l 1
 199 643 l 1
 199 548 l 1x2c
106 548 m 1
 47 548 l 1
 47 643 l 1
 106 643 l 1
 106 548 l 1
EndSplineSet
Validated: 1
EndChar

StartChar: paragraph
Encoding: 182 182 163
Width: 418
Flags: W
HStem: 191 76 666 82
VStem: 24 140 277 57 386 57
LayerCount: 2
Fore
SplineSet
386 -167 m 1
 331 -167 l 1
 331 580 l 1
 277 580 l 1
 277 -167 l 1
 222 -167 l 1
 222 191 l 1
 191 191 l 2
 97 191 24 282 24 420 c 2
 24 436 l 2
 24 575 97 666 191 666 c 2
 386 666 l 1
 386 -167 l 1
222 265 m 1
 222 580 l 1
 207 580 l 2
 177 580 160 530 160 483 c 2
 160 344 l 2
 160 298 177 265 207 265 c 2
 222 265 l 1
EndSplineSet
Validated: 1
EndChar

StartChar: AE
Encoding: 198 198 164
Width: 403
Flags: W
HStem: 0 98 114 98 389 90 568 21G
VStem: 174 103<99 114 114 114 209 297 389 486 486 486>
LayerCount: 2
Fore
SplineSet
390 0 m 1
 174 0 l 1
 174 114 l 1
 114 114 l 1
 98 0 l 1
 -1 0 l 1
 121 666 l 1
 390 666 l 1
 390 570 l 1
 277 570 l 1
 277 389 l 1
 352 389 l 1
 352 297 l 1
 277 297 l 1
 277 99 l 1
 390 99 l 1
 390 0 l 1
174 209 m 1
 174 486 l 1
 131 209 l 1
 174 209 l 1
EndSplineSet
Validated: 1
EndChar

StartChar: Odieresis
Encoding: 214 214 165
Width: 303
Flags: W
HStem: -10 98 676 98 708 98
VStem: 21 103 76 57 228 57 281 103
LayerCount: 2
Fore
SplineSet
281 124 m 2xd2
 281 44 224 -10 151 -10 c 0
 79 -10 21 44 21 124 c 2
 21 542 l 2
 21 621 79 676 151 676 c 0
 224 676 281 621 281 542 c 2
 281 124 l 2xd2
176 117 m 2
 176 549 l 2
 176 566 166 576 151 576 c 0
 136 576 126 566 126 549 c 2
 126 117 l 2
 126 100 136 90 151 90 c 0
 166 90 176 100 176 117 c 2
228 708 m 1x2c
 168 708 l 1
 168 803 l 1
 228 803 l 1
 228 708 l 1x2c
135 708 m 1
 76 708 l 1
 76 803 l 1
 135 803 l 1
 135 708 l 1
EndSplineSet
Validated: 1
EndChar

StartChar: multiply
Encoding: 215 215 166
Width: 305
Flags: W
HStem: 218 229
VStem: 38 229
LayerCount: 2
Fore
SplineSet
267 269 m 1
 216 218 l 1
 152 282 l 1
 88 218 l 1
 38 268 l 1
 102 332 l 1
 38 397 l 1
 89 447 l 1
 153 382 l 1
 216 447 l 1
 267 397 l 1
 202 333 l 1
 267 269 l 1
EndSplineSet
Validated: 1
EndChar

StartChar: degree
Encoding: 176 176 167
Width: 200
Flags: W
HStem: 499 36 676 36
VStem: 11 42 189 42
LayerCount: 2
Fore
SplineSet
189 588 m 0
 189 541 153 499 100 499 c 0
 48 499 11 541 11 588 c 0
 11 635 48 676 100 676 c 0
 153 676 189 635 189 588 c 0
144 588 m 0
 144 616 128 636 100 636 c 0
 73 636 57 616 57 588 c 0
 57 559 73 539 100 539 c 0
 128 539 144 559 144 588 c 0
EndSplineSet
Validated: 1
EndChar

StartChar: Acircumflex
Encoding: 194 194 168
Width: 276
Flags: W
HStem: 0 20 114 98 666 20 698 134<69.5 167 115 208>
LayerCount: 2
Fore
SplineSet
274 0 m 1
 169 0 l 1
 163 114 l 1
 102 114 l 1
 92 0 l 1
 -1 0 l 1
 78 666 l 1
 195 666 l 1
 274 0 l 1
155 209 m 1
 137 485 l 1
 112 209 l 1
 155 209 l 1
237 706 m 1
 226 701 213 698 203 698 c 0
 172 698 148 718 139 771 c 1
 130 718 106 698 75 698 c 0
 64 698 56 701 45 706 c 1
 45 732 l 1
 68 732 102 763 115 832 c 1
 167 832 l 1
 180 763 214 732 237 732 c 1
 237 706 l 1
EndSplineSet
Validated: 1
EndChar

StartChar: yacute
Encoding: 253 253 169
Width: 222
Flags: W
HStem: -169 82 491 20 672 20
LayerCount: 2
Fore
SplineSet
217 491 m 1
 143 -36 l 2
 129 -131 114 -169 33 -169 c 2
 20 -169 l 1
 20 -92 l 1
 33 -92 l 2
 55 -92 62 -80 66 -50 c 2
 74 17 l 1
 6 491 l 1
 89 491 l 1
 108 281 l 1
 114 191 l 1
 121 281 l 1
 139 491 l 1
 217 491 l 1
198 672 m 1
 137 538 l 1
 92 538 l 1
 124 672 l 1
 198 672 l 1
EndSplineSet
Validated: 1
EndChar

StartChar: Yacute
Encoding: 221 221 170
Width: 282
Flags: W
HStem: 0 20 666 20 832 20
VStem: 86 103<0 266 0 266>
LayerCount: 2
Fore
SplineSet
285 666 m 1
 189 266 l 1
 189 0 l 1
 86 0 l 1
 86 266 l 1
 -2 666 l 1
 100 666 l 1
 145 404 l 1
 185 666 l 1
 285 666 l 1
226 832 m 1
 165 698 l 1
 120 698 l 1
 152 832 l 1
 226 832 l 1
EndSplineSet
Validated: 1
EndChar

StartChar: Lslash
Encoding: 321 321 171
Width: 272
Flags: W
HStem: 0 98 666 20
VStem: 59 103
LayerCount: 2
Fore
SplineSet
161 359 m 1
 161 96 l 1
 268 96 l 1
 268 0 l 1
 59 0 l 1
 59 225 l 1
 16 174 l 1
 -10 201 l 1
 59 295 l 1
 59 666 l 1
 161 666 l 1
 161 429 l 1
 205 487 l 1
 230 459 l 1
 161 359 l 1
EndSplineSet
Validated: 1
EndChar

StartChar: lslash
Encoding: 322 322 172
Width: 176
Flags: W
HStem: 0 20 666 20
VStem: 46 84
LayerCount: 2
Fore
SplineSet
195 483 m 1
 131 367 l 1
 131 0 l 1
 46 0 l 1
 46 220 l 1
 12 161 l 1
 -17 189 l 1
 46 303 l 1
 46 666 l 1
 131 666 l 1
 131 450 l 1
 166 511 l 1
 195 483 l 1
EndSplineSet
Validated: 1
EndChar

StartChar: udieresis
Encoding: 252 252 173
Width: 253
Flags: W
HStem: -8 82 491 20 548 98
VStem: 24 84<92 99 99 491> 51 57 203 57 228 84
LayerCount: 2
Fore
SplineSet
228 0 m 1xd2
 152 0 l 1
 148 36 l 1
 137 9 113 -8 88 -8 c 0
 50 -8 24 29 24 78 c 2
 24 491 l 1
 108 491 l 1
 108 99 l 2
 108 85 117 75 127 75 c 0
 136 75 144 85 144 99 c 2
 144 491 l 1
 228 491 l 1
 228 0 l 1xd2
203 548 m 1x2c
 143 548 l 1
 143 643 l 1
 203 643 l 1
 203 548 l 1x2c
110 548 m 1
 51 548 l 1
 51 643 l 1
 110 643 l 1
 110 548 l 1
EndSplineSet
Validated: 1
EndChar

StartChar: ucircumflex
Encoding: 251 251 174
Width: 253
Flags: W
HStem: -8 82 491 20 538 134<56.5 154 102 195>
VStem: 24 84<92 99 99 491> 228 84
LayerCount: 2
Fore
SplineSet
228 0 m 1
 152 0 l 1
 148 36 l 1
 137 9 113 -8 88 -8 c 0
 50 -8 24 29 24 78 c 2
 24 491 l 1
 108 491 l 1
 108 99 l 2
 108 85 117 75 127 75 c 0
 136 75 144 85 144 99 c 2
 144 491 l 1
 228 491 l 1
 228 0 l 1
224 546 m 1
 213 541 200 538 190 538 c 0
 159 538 135 558 126 611 c 1
 117 558 93 538 62 538 c 0
 51 538 43 541 32 546 c 1
 32 572 l 1
 55 572 89 603 102 672 c 1
 154 672 l 1
 167 603 201 572 224 572 c 1
 224 546 l 1
EndSplineSet
Validated: 1
EndChar

StartChar: uacute
Encoding: 250 250 175
Width: 253
Flags: W
HStem: -8 82 491 20 672 20
VStem: 24 84<92 99 99 491> 228 84
LayerCount: 2
Fore
SplineSet
228 0 m 1
 152 0 l 1
 148 36 l 1
 137 9 113 -8 88 -8 c 0
 50 -8 24 29 24 78 c 2
 24 491 l 1
 108 491 l 1
 108 99 l 2
 108 85 117 75 127 75 c 0
 136 75 144 85 144 99 c 2
 144 491 l 1
 228 491 l 1
 228 0 l 1
209 672 m 1
 148 538 l 1
 103 538 l 1
 135 672 l 1
 209 672 l 1
EndSplineSet
Validated: 1
EndChar

StartChar: ugrave
Encoding: 249 249 176
Width: 253
Flags: W
HStem: -8 82 491 20 672 20
VStem: 24 84<92 99 99 491> 228 84
LayerCount: 2
Fore
SplineSet
228 0 m 1
 152 0 l 1
 148 36 l 1
 137 9 113 -8 88 -8 c 0
 50 -8 24 29 24 78 c 2
 24 491 l 1
 108 491 l 1
 108 99 l 2
 108 85 117 75 127 75 c 0
 136 75 144 85 144 99 c 2
 144 491 l 1
 228 491 l 1
 228 0 l 1
148 538 m 1
 103 538 l 1
 41 672 l 1
 116 672 l 1
 148 538 l 1
EndSplineSet
Validated: 1
EndChar

StartChar: emdash
Encoding: 8212 8212 177
Width: 638
Flags: W
HStem: 272 76
LayerCount: 2
Fore
SplineSet
576 272 m 1
 63 272 l 1
 63 347 l 1
 576 347 l 1
 576 272 l 1
EndSplineSet
Validated: 1
EndChar

StartChar: endash
Encoding: 8211 8211 178
Width: 425
Flags: W
HStem: 272 76
VStem: 63 300<272 347 272 347>
LayerCount: 2
Fore
SplineSet
363 272 m 1
 63 272 l 1
 63 347 l 1
 363 347 l 1
 363 272 l 1
EndSplineSet
Validated: 1
EndChar

StartChar: ellipsis
Encoding: 8230 8230 179
Width: 354
Flags: W
HStem: 0 118
VStem: 20 84 138 76 334 84
LayerCount: 2
Fore
SplineSet
99 0 m 1
 20 0 l 1
 20 117 l 1
 99 117 l 1
 99 0 l 1
216 0 m 1
 138 0 l 1
 138 117 l 1
 216 117 l 1
 216 0 l 1
334 0 m 1
 255 0 l 1
 255 117 l 1
 334 117 l 1
 334 0 l 1
EndSplineSet
Validated: 1
EndChar

StartChar: quotedblleft
Encoding: 8220 8220 180
Width: 217
Flags: W
HStem: 469 118<62 99 62 99 20 99 62 119 161 197 62 197> 667 28
VStem: 20 84 197 76
LayerCount: 2
Fore
SplineSet
20 576 m 2
 20 627 52 667 99 667 c 1
 99 641 l 1
 78 641 62 626 62 587 c 1
 99 587 l 1
 99 469 l 1
 20 469 l 1
 20 576 l 2
119 576 m 2
 119 627 150 667 197 667 c 1
 197 641 l 1
 177 641 161 626 161 587 c 1
 197 587 l 1
 197 469 l 1
 119 469 l 1
 119 576 l 2
EndSplineSet
Validated: 1
EndChar

StartChar: quotedblright
Encoding: 8221 8221 181
Width: 217
Flags: W
HStem: 468 28 666 118
VStem: 20 84 197 76
LayerCount: 2
Fore
SplineSet
197 558 m 2
 197 508 166 468 119 468 c 1
 119 494 l 1
 139 494 155 509 155 548 c 1
 119 548 l 1
 119 666 l 1
 197 666 l 1
 197 558 l 2
99 558 m 2
 99 508 67 468 20 468 c 1
 20 494 l 1
 41 494 57 509 57 548 c 1
 20 548 l 1
 20 666 l 1
 99 666 l 1
 99 558 l 2
EndSplineSet
Validated: 1
EndChar

StartChar: quotedblbase
Encoding: 8222 8222 182
Width: 217
Flags: W
HStem: -80 20 118 118
VStem: 20 84 197 76
LayerCount: 2
Fore
SplineSet
197 10 m 2
 197 -40 166 -80 119 -80 c 1
 119 -55 l 1
 139 -55 155 -39 155 0 c 1
 119 0 l 1
 119 118 l 1
 197 118 l 1
 197 10 l 2
99 10 m 2
 99 -40 67 -80 20 -80 c 1
 20 -55 l 1
 41 -55 57 -39 57 0 c 1
 20 0 l 1
 20 118 l 1
 99 118 l 1
 99 10 l 2
EndSplineSet
Validated: 1
EndChar

StartChar: quoteleft
Encoding: 8216 8216 183
Width: 119
Flags: W
HStem: 469 118<62 99 62 99 20 99> 667 28
VStem: 20 84
LayerCount: 2
Fore
SplineSet
20 576 m 2
 20 627 52 667 99 667 c 1
 99 641 l 1
 78 641 62 626 62 587 c 1
 99 587 l 1
 99 469 l 1
 20 469 l 1
 20 576 l 2
EndSplineSet
Validated: 1
EndChar

StartChar: quoteright
Encoding: 8217 8217 184
Width: 119
Flags: W
HStem: 468 28 666 118
VStem: 20 84
LayerCount: 2
Fore
SplineSet
99 558 m 2
 99 508 67 468 20 468 c 1
 20 494 l 1
 41 494 57 509 57 548 c 1
 20 548 l 1
 20 666 l 1
 99 666 l 1
 99 558 l 2
EndSplineSet
Validated: 1
EndChar

StartChar: dieresis
Encoding: 168 168 185
Width: 176
Flags: W
HStem: 548 98
VStem: 12 57 164 57
LayerCount: 2
Fore
SplineSet
164 548 m 1
 104 548 l 1
 104 643 l 1
 164 643 l 1
 164 548 l 1
71 548 m 1
 12 548 l 1
 12 643 l 1
 71 643 l 1
 71 548 l 1
EndSplineSet
Validated: 1
EndChar

StartChar: trademark
Encoding: 8482 8482 186
Width: 390
Flags: W
HStem: 666 28
VStem: 61 84 213 34 363 34
LayerCount: 2
Fore
SplineSet
363 482 m 1
 329 482 l 1
 329 631 l 1
 316 579 l 1
 286 482 l 1
 254 482 l 1
 226 579 l 1
 213 631 l 1
 213 482 l 1
 179 482 l 1
 179 666 l 1
 231 666 l 1
 259 564 l 1
 271 515 l 1
 284 564 l 1
 310 666 l 1
 363 666 l 1
 363 482 l 1
147 635 m 1
 98 635 l 1
 98 482 l 1
 61 482 l 1
 61 635 l 1
 12 635 l 1
 12 666 l 1
 147 666 l 1
 147 635 l 1
EndSplineSet
Validated: 1
EndChar

StartChar: Dcroat
Encoding: 272 272 187
Width: 309
Flags: W
HStem: 0 98 296 76 568 21G
VStem: 31 103<95 296 95 296 95 296 370 570> 288 103
LayerCount: 2
Fore
SplineSet
134 370 m 1
 160 370 l 1
 160 296 l 1
 134 296 l 1
 134 95 l 1
 158 95 l 2
 176 95 185 106 185 130 c 2
 185 536 l 2
 185 559 176 570 158 570 c 2
 134 570 l 1
 134 370 l 1
31 296 m 1
 -5 296 l 1
 -5 370 l 1
 31 370 l 1
 31 666 l 1
 168 666 l 2
 230 666 288 629 288 536 c 2
 288 126 l 2
 288 33 230 0 168 0 c 2
 31 0 l 1
 31 296 l 1
EndSplineSet
Validated: 1
EndChar

StartChar: zcaron
Encoding: 382 382 188
Width: 206
Flags: W
HStem: 0 90<103 188 103 188> 491 82 674 36
VStem: 9 178
LayerCount: 2
Fore
SplineSet
194 459 m 1
 103 90 l 1
 188 90 l 1
 188 0 l 1
 9 0 l 1
 9 32 l 1
 102 404 l 1
 19 404 l 1
 19 491 l 1
 194 491 l 1
 194 459 l 1
202 640 m 1
 179 640 145 609 133 541 c 1
 80 541 l 1
 67 609 33 640 10 640 c 1
 10 667 l 1
 21 672 34 674 43 674 c 0
 75 674 99 654 108 601 c 1
 117 654 141 674 172 674 c 0
 183 674 192 672 202 667 c 1
 202 640 l 1
EndSplineSet
Validated: 1
EndChar

StartChar: Zcaron
Encoding: 381 381 189
Width: 250
Flags: W
HStem: 0 98<117 236 117 236> 568 98<11 129 11 242> 834 36
VStem: 4 228
LayerCount: 2
Fore
SplineSet
242 631 m 1
 117 98 l 1
 236 98 l 1
 236 0 l 1
 4 0 l 1
 4 35 l 1
 129 568 l 1
 11 568 l 1
 11 666 l 1
 242 666 l 1
 242 631 l 1
224 800 m 1
 201 800 167 769 155 701 c 1
 102 701 l 1
 89 769 55 800 32 800 c 1
 32 827 l 1
 43 832 56 834 65 834 c 0
 97 834 121 814 130 761 c 1
 139 814 163 834 194 834 c 0
 205 834 214 832 224 827 c 1
 224 800 l 1
EndSplineSet
Validated: 1
EndChar

StartChar: uniFB00
Encoding: 64256 64256 190
Width: 329
Flags: W
HStem: 0 20 489 82 666 82
VStem: 44 84 199 84
LayerCount: 2
Fore
SplineSet
323 410 m 1
 284 410 l 1
 284 0 l 1
 199 0 l 1
 199 410 l 1
 129 410 l 1
 129 0 l 1
 44 0 l 1
 44 410 l 1
 10 410 l 1
 10 489 l 1
 44 489 l 1
 44 534 l 2
 44 617 73 666 152 666 c 2
 167 666 l 1
 167 588 l 1
 158 588 l 2
 134 588 127 574 127 547 c 2
 127 489 l 1
 199 489 l 1
 199 534 l 2
 199 617 228 666 307 666 c 2
 322 666 l 1
 322 588 l 1
 313 588 l 2
 289 588 282 574 282 547 c 2
 282 489 l 1
 323 489 l 1
 323 410 l 1
EndSplineSet
Validated: 1
EndChar

StartChar: uniFB01
Encoding: 64257 64257 191
Width: 307
Flags: W
HStem: 0 20 489 82 641 98 666 20
VStem: 44 84 283 84
LayerCount: 2
Fore
SplineSet
168 410 m 1xfc
 129 410 l 1
 129 0 l 1
 44 0 l 1
 44 410 l 1
 10 410 l 1
 10 489 l 1
 44 489 l 1
 44 534 l 2
 44 617 73 666 152 666 c 2
 167 666 l 1
 167 588 l 1
 158 588 l 2
 134 588 127 574 127 547 c 2
 127 489 l 1
 168 489 l 1
 168 410 l 1xfc
281 545 m 1
 200 545 l 1
 200 641 l 1
 281 641 l 1
 281 545 l 1
283 0 m 1
 198 0 l 1
 198 491 l 1
 283 491 l 1
 283 0 l 1
EndSplineSet
Validated: 8388609
EndChar

StartChar: uniFB02
Encoding: 64258 64258 192
Width: 307
Flags: W
HStem: 0 20 489 82 666 82
VStem: 44 84 283 84
LayerCount: 2
Fore
SplineSet
168 410 m 1
 129 410 l 1
 129 0 l 1
 44 0 l 1
 44 410 l 1
 10 410 l 1
 10 489 l 1
 44 489 l 1
 44 534 l 2
 44 617 73 666 152 666 c 2
 167 666 l 1
 167 588 l 1
 158 588 l 2
 134 588 127 574 127 547 c 2
 127 489 l 1
 168 489 l 1
 168 410 l 1
283 0 m 1
 198 0 l 1
 198 666 l 1
 283 666 l 1
 283 0 l 1
EndSplineSet
Validated: 1
EndChar

StartChar: uniFB03
Encoding: 64259 64259 193
Width: 462
Flags: W
HStem: 0 20 489 82 641 98 666 20
VStem: 44 84 199 84 438 84
LayerCount: 2
Fore
SplineSet
323 410 m 1xfe
 284 410 l 1
 284 0 l 1
 199 0 l 1
 199 410 l 1
 129 410 l 1
 129 0 l 1
 44 0 l 1
 44 410 l 1
 10 410 l 1
 10 489 l 1
 44 489 l 1
 44 534 l 2
 44 617 73 666 152 666 c 2
 167 666 l 1
 167 588 l 1
 158 588 l 2
 134 588 127 574 127 547 c 2
 127 489 l 1
 199 489 l 1
 199 534 l 2
 199 617 228 666 307 666 c 2
 322 666 l 1
 322 588 l 1
 313 588 l 2
 289 588 282 574 282 547 c 2
 282 489 l 1
 323 489 l 1
 323 410 l 1xfe
436 545 m 1
 355 545 l 1
 355 641 l 1
 436 641 l 1
 436 545 l 1
438 0 m 1
 353 0 l 1
 353 491 l 1
 438 491 l 1
 438 0 l 1
EndSplineSet
Validated: 8388609
EndChar

StartChar: uniFB04
Encoding: 64260 64260 194
Width: 462
Flags: W
HStem: 0 20 489 82 666 82
VStem: 44 84 199 84 438 84
LayerCount: 2
Fore
SplineSet
323 410 m 1
 284 410 l 1
 284 0 l 1
 199 0 l 1
 199 410 l 1
 129 410 l 1
 129 0 l 1
 44 0 l 1
 44 410 l 1
 10 410 l 1
 10 489 l 1
 44 489 l 1
 44 534 l 2
 44 617 73 666 152 666 c 2
 167 666 l 1
 167 588 l 1
 158 588 l 2
 134 588 127 574 127 547 c 2
 127 489 l 1
 199 489 l 1
 199 534 l 2
 199 617 228 666 307 666 c 2
 322 666 l 1
 322 588 l 1
 313 588 l 2
 289 588 282 574 282 547 c 2
 282 489 l 1
 323 489 l 1
 323 410 l 1
438 0 m 1
 353 0 l 1
 353 666 l 1
 438 666 l 1
 438 0 l 1
EndSplineSet
Validated: 1
EndChar

StartChar: oslash
Encoding: 248 248 195
Width: 245
Flags: W
HStem: -8 82 500 82
VStem: 21 84<116 165 252 378 378 394> 224 84
LayerCount: 2
Fore
SplineSet
140 238 m 1
 105 165 l 1
 105 97 l 2
 105 84 112 73 123 73 c 0
 133 73 140 84 140 97 c 2
 140 238 l 1
105 252 m 1
 140 325 l 1
 140 394 l 2
 140 407 133 418 123 418 c 0
 112 418 105 407 105 394 c 2
 105 252 l 1
27 91 m 1
 23 97 21 107 21 116 c 2
 21 378 l 2
 21 452 66 500 123 500 c 0
 155 500 184 483 201 453 c 1
 227 506 l 1
 257 482 l 1
 218 399 l 1
 222 393 224 383 224 374 c 2
 224 113 l 2
 224 39 179 -8 123 -8 c 0
 91 -8 62 9 44 38 c 1
 19 -14 l 1
 -11 10 l 1
 27 91 l 1
EndSplineSet
Validated: 1
EndChar

StartChar: acute
Encoding: 180 180 196
Width: 128
Flags: W
HStem: 672 20
LayerCount: 2
Fore
SplineSet
130 672 m 1
 69 538 l 1
 24 538 l 1
 56 672 l 1
 130 672 l 1
EndSplineSet
Validated: 1
EndChar

StartChar: Thorn
Encoding: 222 222 197
Width: 288
Flags: W
HStem: 0 20 145 82 552 98 666 20
VStem: 26 103 273 103
LayerCount: 2
Fore
SplineSet
273 264 m 2
 273 176 219 145 166 145 c 2
 130 145 l 1
 130 0 l 1
 26 0 l 1
 26 666 l 1
 130 666 l 1
 130 552 l 1
 166 552 l 2
 219 552 273 522 273 434 c 2
 273 264 l 2
174 260 m 2
 174 430 l 2
 174 450 168 459 156 459 c 2
 130 459 l 1
 130 232 l 1
 156 232 l 2
 168 232 174 240 174 260 c 2
EndSplineSet
Validated: 1
EndChar

StartChar: thorn
Encoding: 254 254 198
Width: 250
Flags: W
HStem: -9 82 500 82 666 20
VStem: 25 84<-166 23 92 99 99 392 468 666> 228 84
LayerCount: 2
Fore
SplineSet
228 81 m 2
 228 32 200 -9 162 -9 c 0
 140 -9 124 3 109 23 c 1
 109 -166 l 1
 25 -166 l 1
 25 666 l 1
 109 666 l 1
 109 468 l 1
 124 488 140 500 162 500 c 0
 200 500 228 459 228 410 c 2
 228 81 l 2
145 99 m 2
 145 392 l 2
 145 406 137 416 127 416 c 0
 117 416 109 406 109 392 c 2
 109 99 l 2
 109 85 117 75 127 75 c 0
 137 75 145 85 145 99 c 2
EndSplineSet
Validated: 1
EndChar

StartChar: ydieresis
Encoding: 255 255 199
Width: 222
Flags: W
HStem: -169 82 491 20 548 98
VStem: 39 57 191 57
LayerCount: 2
Fore
SplineSet
217 491 m 1
 143 -36 l 2
 129 -131 114 -169 33 -169 c 2
 20 -169 l 1
 20 -92 l 1
 33 -92 l 2
 55 -92 62 -80 66 -50 c 2
 74 17 l 1
 6 491 l 1
 89 491 l 1
 108 281 l 1
 114 191 l 1
 121 281 l 1
 139 491 l 1
 217 491 l 1
191 548 m 1
 131 548 l 1
 131 643 l 1
 191 643 l 1
 191 548 l 1
98 548 m 1
 39 548 l 1
 39 643 l 1
 98 643 l 1
 98 548 l 1
EndSplineSet
Validated: 1
EndChar

StartChar: Eth
Encoding: 208 208 200
Width: 309
Flags: W
HStem: 0 98 296 76 568 21G
VStem: 31 103<95 296 95 296 95 296 370 570> 288 103
LayerCount: 2
Fore
SplineSet
134 370 m 1
 160 370 l 1
 160 296 l 1
 134 296 l 1
 134 95 l 1
 158 95 l 2
 176 95 185 106 185 130 c 2
 185 536 l 2
 185 559 176 570 158 570 c 2
 134 570 l 1
 134 370 l 1
31 296 m 1
 -5 296 l 1
 -5 370 l 1
 31 370 l 1
 31 666 l 1
 168 666 l 2
 230 666 288 629 288 536 c 2
 288 126 l 2
 288 33 230 0 168 0 c 2
 31 0 l 1
 31 296 l 1
EndSplineSet
Validated: 1
EndChar

StartChar: dagger
Encoding: 8224 8224 201
Width: 270
Flags: W
HStem: 479 50 666 20
VStem: 115 42
LayerCount: 2
Fore
SplineSet
263 438 m 2
 263 431 258 428 253 428 c 0
 239 428 178 431 153 438 c 1
 159 413 162 274 162 260 c 0
 162 161 159 -23 155 -61 c 0
 155 -66 152 -72 146 -72 c 2
 124 -72 l 2
 118 -72 115 -66 115 -61 c 0
 111 -23 108 161 108 260 c 0
 108 274 111 413 117 438 c 1
 93 431 31 428 17 428 c 0
 12 428 7 431 7 438 c 2
 7 470 l 2
 7 476 12 479 17 479 c 0
 34 479 91 477 117 470 c 1
 111 495 108 641 108 655 c 0
 108 660 111 666 117 666 c 2
 153 666 l 2
 159 666 162 660 162 655 c 0
 162 641 159 495 153 470 c 1
 179 477 236 479 253 479 c 0
 258 479 263 476 263 470 c 2
 263 438 l 2
EndSplineSet
Validated: 1
EndChar

StartChar: daggerdbl
Encoding: 8225 8225 202
Width: 270
Flags: W
HStem: 110 50<14.5 24 14.5 25.5 246 255> 474 50
VStem: 108 57
LayerCount: 2
Fore
SplineSet
263 119 m 2
 263 112 257 110 253 110 c 0
 236 110 179 112 153 119 c 1
 159 94 162 -51 162 -66 c 0
 162 -71 159 -77 153 -77 c 2
 117 -77 l 2
 111 -77 108 -71 108 -66 c 0
 108 -51 111 94 117 119 c 1
 91 112 34 110 17 110 c 0
 12 110 7 112 7 119 c 2
 7 152 l 2
 7 158 12 160 17 160 c 0
 31 160 93 158 117 152 c 1
 111 177 108 278 108 292 c 0
 108 307 111 408 117 433 c 1
 93 426 31 424 17 424 c 0
 12 424 7 426 7 433 c 2
 7 466 l 2
 7 472 12 474 17 474 c 0
 34 474 91 472 117 466 c 1
 111 491 108 636 108 651 c 0
 108 655 111 661 117 661 c 2
 153 661 l 2
 159 661 162 655 162 651 c 0
 162 636 159 491 153 466 c 1
 179 472 236 474 253 474 c 0
 257 474 263 472 263 466 c 2
 263 433 l 2
 263 426 257 424 253 424 c 0
 239 424 177 426 153 433 c 1
 159 408 162 307 162 292 c 0
 162 278 159 177 153 152 c 1
 177 158 239 160 253 160 c 0
 257 160 263 158 263 152 c 2
 263 119 l 2
EndSplineSet
Validated: 1
EndChar

StartChar: bullet
Encoding: 8226 8226 203
Width: 208
Flags: W
HStem: 241 184
VStem: 13 178
LayerCount: 2
Fore
SplineSet
194 333 m 0
 194 275 156 241 104 241 c 0
 52 241 13 275 13 333 c 0
 13 390 52 424 104 424 c 0
 156 424 194 390 194 333 c 0
EndSplineSet
Validated: 1
EndChar

StartChar: perthousand
Encoding: 8240 8240 204
Width: 630
Flags: W
HStem: -13 50 273 50 390 50 676 50
VStem: 20 57<425 590 590 599> 125 57<417 425 425 590> 255 57<73 239 239 247> 417 57 508 57 613 57
LayerCount: 2
Fore
SplineSet
613 73 m 2
 613 20 578 -13 532 -13 c 0
 485 -13 450 20 450 73 c 2
 450 239 l 2
 450 293 485 324 532 324 c 0
 578 324 613 293 613 239 c 2
 613 73 l 2
556 65 m 2
 556 247 l 2
 556 263 545 273 532 273 c 0
 518 273 508 263 508 247 c 2
 508 65 l 2
 508 50 518 39 532 39 c 0
 545 39 556 50 556 65 c 2
417 73 m 2
 417 20 382 -13 336 -13 c 0
 289 -13 255 20 255 73 c 2
 255 239 l 2
 255 293 289 324 336 324 c 0
 382 324 417 293 417 239 c 2
 417 73 l 2
360 65 m 2
 360 247 l 2
 360 263 350 273 336 273 c 0
 322 273 312 263 312 247 c 2
 312 65 l 2
 312 50 322 39 336 39 c 0
 350 39 360 50 360 65 c 2
396 658 m 1
 73 -19 l 1
 41 6 l 1
 364 683 l 1
 396 658 l 1
182 425 m 2
 182 372 148 339 101 339 c 0
 55 339 20 372 20 425 c 2
 20 590 l 2
 20 644 55 676 101 676 c 0
 148 676 182 644 182 590 c 2
 182 425 l 2
125 417 m 2
 125 599 l 2
 125 614 115 625 101 625 c 0
 88 625 77 614 77 599 c 2
 77 417 l 2
 77 402 88 390 101 390 c 0
 115 390 125 402 125 417 c 2
EndSplineSet
Validated: 1
EndChar

StartChar: fraction
Encoding: 8260 8260 205
Width: 93
Flags: W
LayerCount: 2
Fore
SplineSet
313 712 m 1
 -184 -71 l 1
 -219 -46 l 1
 278 737 l 1
 313 712 l 1
EndSplineSet
Validated: 1
EndChar

StartChar: uni2027
Encoding: 8231 8231 206
Width: 119
Flags: W
HStem: 274 118
VStem: 20 84
LayerCount: 2
Fore
SplineSet
99 274 m 1
 20 274 l 1
 20 391 l 1
 99 391 l 1
 99 274 l 1
EndSplineSet
Validated: 1
EndChar

StartChar: florin
Encoding: 402 402 207
Width: 227
Flags: W
HStem: -17 70<29 38 38 44 29 38> 390 76 666 70
VStem: 68 130
LayerCount: 2
Fore
SplineSet
161 390 m 1
 211 390 l 1
 211 316 l 1
 161 316 l 1
 161 115 l 2
 161 32 123 -17 44 -17 c 2
 29 -17 l 1
 29 53 l 1
 38 53 l 2
 62 53 68 66 68 93 c 2
 68 316 l 1
 19 316 l 1
 19 390 l 1
 68 390 l 1
 68 534 l 2
 68 617 106 666 186 666 c 2
 202 666 l 1
 202 597 l 1
 192 597 l 2
 168 597 161 583 161 556 c 2
 161 390 l 1
EndSplineSet
Validated: 1
EndChar

StartChar: uni0080
Encoding: 128 128 208
Width: 967
Flags: W
HStem: -104 36 695 28 750 50
VStem: 475 15<-91 -86>
LayerCount: 2
Fore
SplineSet
867 0 m 1
 100 0 l 1
 100 750 l 1
 867 750 l 1
 867 0 l 1
858 -104 m 2
 852 -104 l 2
 852 -103 851 -99 851 -98 c 2
 849 -85 l 1
 849 -85 840 -102 839 -105 c 2
 837 -105 l 1
 827 -85 l 1
 825 -98 l 2
 825 -99 825 -103 824 -104 c 2
 818 -104 l 2
 819 -101 820 -96 820 -93 c 2
 822 -82 l 2
 823 -79 823 -73 824 -70 c 2
 825 -70 l 2
 826 -72 828 -75 828 -77 c 2
 838 -95 l 1
 848 -77 l 2
 849 -75 851 -71 851 -70 c 2
 852 -70 l 2
 853 -73 854 -79 854 -82 c 2
 856 -93 l 2
 857 -96 857 -101 858 -104 c 2
805 -87 m 0
 805 -97 798 -105 788 -105 c 0
 778 -105 771 -97 771 -88 c 0
 771 -78 778 -70 789 -70 c 0
 798 -70 805 -78 805 -87 c 0
757 -96 m 2
 756 -102 l 2
 754 -104 750 -105 746 -105 c 0
 735 -105 728 -98 728 -88 c 0
 728 -78 736 -70 746 -70 c 0
 750 -70 754 -71 757 -73 c 2
 755 -78 l 2
 753 -76 749 -75 746 -75 c 0
 740 -75 735 -80 735 -87 c 0
 735 -96 740 -100 747 -100 c 0
 750 -100 754 -98 757 -96 c 2
701 -71 m 1
 688 -90 l 1
 688 -97 l 1
 688 -104 l 1
 681 -104 l 1
 681 -93 l 1
 681 -90 l 1
 676 -82 l 2
 674 -79 670 -74 668 -71 c 2
 675 -70 l 1
 685 -85 l 1
 687 -81 l 2
 689 -78 692 -74 694 -71 c 2
 701 -71 l 1
655 -104 m 1
 648 -104 l 2
 649 -102 649 -96 649 -93 c 2
 649 -89 l 1
 633 -89 l 1
 633 -97 l 1
 633 -104 l 1
 626 -104 l 2
 627 -102 627 -96 627 -93 c 2
 627 -82 l 2
 627 -79 627 -73 626 -71 c 2
 633 -71 l 1
 633 -78 l 1
 633 -84 l 1
 649 -84 l 1
 649 -82 l 2
 649 -79 649 -73 648 -71 c 2
 655 -71 l 1
 655 -78 l 1
 655 -97 l 1
 655 -104 l 1
612 -81 m 0
 612 -88 607 -93 597 -93 c 2
 594 -93 l 1
 594 -97 l 1
 594 -104 l 1
 587 -104 l 2
 588 -102 588 -96 588 -93 c 2
 588 -82 l 2
 588 -79 588 -73 587 -71 c 1
 589 -71 594 -70 598 -70 c 0
 607 -70 612 -76 612 -81 c 0
574 -104 m 2
 568 -104 l 1
 564 -96 l 1
 550 -96 l 1
 550 -97 l 2
 549 -99 548 -101 547 -104 c 2
 540 -104 l 1
 552 -80 l 2
 554 -76 555 -73 556 -70 c 2
 558 -70 l 1
 569 -94 l 2
 571 -97 573 -101 574 -104 c 2
533 -104 m 2
 526 -104 l 1
 518 -91 l 1
 513 -91 l 1
 513 -97 l 1
 513 -104 l 1
 506 -104 l 1
 506 -93 l 1
 506 -82 l 1
 506 -71 l 1
 516 -71 l 2
 525 -71 530 -75 530 -80 c 0
 530 -85 527 -88 523 -90 c 1
 528 -97 l 2
 529 -99 532 -102 533 -104 c 2
490 -101 m 2
 487 -103 482 -105 477 -105 c 0
 467 -105 459 -98 459 -88 c 0
 459 -78 467 -70 478 -70 c 0
 482 -70 486 -72 489 -74 c 2
 487 -79 l 2
 485 -77 481 -75 477 -75 c 0
 470 -75 466 -80 466 -88 c 0
 466 -95 471 -100 478 -100 c 0
 480 -100 482 -99 484 -98 c 2
 484 -94 l 1
 484 -91 l 1
 481 -91 l 1
 475 -91 l 1
 475 -86 l 1
 482 -86 l 1
 490 -86 l 1
 490 -97 l 1
 490 -101 l 2
446 -87 m 0
 446 -97 439 -105 429 -105 c 0
 419 -105 412 -97 412 -88 c 0
 412 -78 419 -70 430 -70 c 0
 439 -70 446 -78 446 -87 c 0
400 -81 m 0
 400 -88 395 -93 385 -93 c 2
 382 -93 l 1
 382 -97 l 2
 382 -99 382 -103 383 -104 c 2
 376 -104 l 1
 376 -93 l 1
 376 -82 l 1
 376 -71 l 2
 377 -71 382 -70 386 -70 c 0
 395 -70 400 -76 400 -81 c 0
363 -71 m 1
 350 -90 l 1
 350 -97 l 1
 350 -104 l 1
 343 -104 l 1
 343 -93 l 1
 343 -90 l 1
 338 -82 l 2
 336 -79 333 -74 330 -71 c 2
 337 -70 l 1
 347 -85 l 1
 349 -81 l 2
 351 -78 354 -74 356 -71 c 2
 363 -71 l 1
322 -70 m 1
 321 -72 321 -74 321 -76 c 2
 310 -76 l 1
 310 -79 l 1
 310 -97 l 1
 310 -104 l 1
 303 -104 l 2
 304 -102 304 -96 304 -93 c 2
 304 -83 l 1
 304 -76 l 1
 292 -76 l 1
 292 -70 l 1
 297 -71 301 -71 307 -71 c 0
 312 -71 317 -71 322 -70 c 1
266 -71 m 1
 257 -95 l 2
 255 -99 254 -102 253 -104 c 2
 252 -105 l 1
 243 -83 l 1
 237 -95 l 2
 236 -97 234 -102 233 -105 c 2
 232 -105 l 1
 223 -80 l 2
 222 -77 220 -74 219 -71 c 2
 226 -70 l 1
 233 -92 l 1
 239 -79 l 2
 239 -78 242 -72 242 -70 c 2
 243 -70 l 1
 252 -92 l 1
 257 -80 l 1
 260 -71 l 1
 266 -71 l 1
210 -71 m 1
 201 -95 l 2
 199 -99 198 -102 198 -104 c 2
 196 -105 l 1
 187 -83 l 1
 181 -95 l 2
 180 -97 178 -102 177 -105 c 2
 176 -105 l 1
 167 -80 l 2
 166 -77 165 -74 163 -71 c 2
 170 -70 l 1
 177 -92 l 1
 183 -79 l 2
 183 -78 186 -72 186 -70 c 2
 188 -70 l 1
 197 -92 l 1
 201 -80 l 1
 204 -71 l 1
 210 -71 l 1
155 -71 m 1
 145 -95 l 2
 144 -99 143 -102 142 -104 c 2
 141 -105 l 1
 131 -83 l 1
 126 -95 l 2
 125 -97 122 -102 121 -105 c 2
 120 -105 l 1
 111 -80 l 1
 108 -71 l 1
 114 -70 l 1
 122 -92 l 1
 127 -79 l 2
 128 -78 130 -72 131 -70 c 2
 132 -70 l 1
 141 -92 l 1
 145 -80 l 1
 148 -71 l 1
 155 -71 l 1
715 -101 m 0
 715 -103 713 -105 711 -105 c 0
 708 -105 707 -103 707 -101 c 0
 707 -99 709 -97 711 -97 c 0
 713 -97 715 -99 715 -101 c 0
280 -101 m 0
 280 -103 279 -105 276 -105 c 0
 274 -105 273 -103 273 -101 c 0
 273 -99 274 -97 277 -97 c 0
 279 -97 280 -99 280 -101 c 0
559 686 m 1
 557 691 557 694 555 698 c 1
 553 697 552 697 540 697 c 0
 528 697 527 697 524 698 c 1
 524 694 523 691 522 686 c 1
 523 686 l 1
 524 686 l 1
 526 693 527 695 533 695 c 0
 536 695 536 694 536 692 c 2
 536 670 l 2
 536 666 536 665 531 664 c 0
 530 664 530 664 530 663 c 0
 530 662 530 662 531 662 c 2
 540 662 l 1
 548 662 l 2
 549 662 549 662 549 663 c 0
 549 664 549 664 548 664 c 0
 544 665 543 666 543 670 c 2
 543 692 l 2
 543 694 544 695 546 695 c 0
 551 695 555 692 557 686 c 1
 559 686 l 1
503 662 m 1
 503 663 l 1
 503 664 l 1
 497 665 497 666 497 670 c 2
 497 689 l 2
 497 693 497 695 503 695 c 1
 503 696 l 1
 503 697 l 1
 494 697 l 1
 485 697 l 1
 485 696 l 1
 485 695 l 1
 490 695 490 693 490 689 c 2
 490 681 l 1
 473 681 l 1
 473 689 l 2
 473 693 473 695 478 695 c 1
 478 696 l 1
 478 697 l 1
 469 697 l 1
 461 697 l 2
 460 697 460 697 460 696 c 0
 460 695 460 695 461 695 c 0
 465 695 466 693 466 689 c 2
 466 670 l 2
 466 666 465 665 461 664 c 0
 460 664 460 664 460 663 c 0
 460 662 460 662 461 662 c 2
 469 662 l 1
 478 662 l 1
 478 663 l 1
 478 664 l 1
 473 665 473 666 473 670 c 2
 473 679 l 1
 490 679 l 1
 490 670 l 2
 490 666 490 665 485 664 c 1
 485 663 l 1
 485 662 l 1
 494 662 l 1
 503 662 l 1
439 663 m 0
 439 664 438 664 438 664 c 2
 433 665 433 666 433 670 c 2
 433 689 l 2
 433 693 433 695 438 695 c 2
 438 695 439 695 439 696 c 0
 439 697 438 697 438 697 c 1
 422 697 l 1
 410 697 l 2
 410 694 410 691 408 687 c 1
 410 686 l 1
 412 692 416 694 419 694 c 2
 422 694 l 2
 424 694 426 694 426 691 c 2
 426 681 l 1
 422 681 l 2
 419 681 416 682 416 686 c 0
 416 688 414 688 414 686 c 2
 414 680 l 1
 414 674 l 1
 416 674 l 1
 416 679 419 680 422 680 c 2
 426 680 l 1
 426 668 l 2
 426 665 424 665 422 665 c 2
 419 665 l 2
 414 665 410 668 407 674 c 1
 406 673 l 2
 407 669 409 666 410 662 c 1
 422 662 l 1
 438 662 l 1
 438 662 439 662 439 663 c 0
826 619 m 1
 826 623 l 1
 141 623 l 1
 141 619 l 1
 826 619 l 1
694 540 m 0
 694 560 676 578 658 578 c 0
 649 578 636 572 636 556 c 0
 636 535 654 518 672 518 c 0
 681 518 694 524 694 540 c 0
587 536 m 0
 587 543 581 550 574 554 c 1
 576 556 578 559 578 563 c 0
 578 569 570 578 558 578 c 0
 550 578 545 572 545 566 c 0
 545 563 547 560 550 560 c 0
 553 560 554 562 554 563 c 0
 554 567 551 566 551 569 c 0
 551 572 554 575 558 575 c 0
 565 575 568 570 568 563 c 0
 568 559 567 558 566 557 c 2
 558 557 l 2
 554 557 550 555 550 551 c 0
 550 548 554 545 558 545 c 0
 563 545 566 547 569 550 c 1
 573 547 575 542 575 535 c 0
 575 524 570 521 563 521 c 0
 556 521 551 524 551 530 c 0
 551 532 552 533 554 533 c 0
 555 533 556 531 559 531 c 0
 561 531 563 533 563 536 c 0
 563 539 560 541 556 541 c 0
 551 541 547 536 547 531 c 0
 547 524 554 518 563 518 c 0
 578 518 587 526 587 536 c 0
292 536 m 0
 292 543 287 550 279 554 c 1
 281 556 283 559 283 563 c 0
 283 569 275 578 263 578 c 0
 256 578 250 572 250 566 c 0
 250 563 252 560 255 560 c 0
 258 560 260 562 260 563 c 0
 260 567 257 566 257 569 c 0
 257 572 259 575 263 575 c 0
 270 575 273 570 273 563 c 0
 273 559 272 558 272 557 c 2
 263 557 l 2
 260 557 256 555 256 551 c 0
 256 548 260 545 263 545 c 0
 268 545 272 547 275 550 c 1
 278 547 281 542 281 535 c 0
 281 524 275 521 269 521 c 0
 261 521 257 524 257 530 c 0
 257 532 257 533 259 533 c 0
 260 533 261 531 264 531 c 0
 267 531 269 533 269 536 c 0
 269 539 266 541 261 541 c 0
 256 541 252 536 252 531 c 0
 252 524 259 518 269 518 c 0
 284 518 292 526 292 536 c 0
820 520 m 0
 820 521 819 522 818 522 c 0
 810 524 810 526 809 531 c 2
 801 564 l 2
 800 565 800 566 800 568 c 0
 800 570 802 572 808 573 c 0
 809 573 809 573 809 574 c 0
 809 575 808 576 807 576 c 0
 802 576 798 575 793 575 c 0
 787 575 785 576 780 576 c 1
 780 575 l 2
 780 574 780 573 781 573 c 0
 788 572 788 569 790 564 c 2
 793 550 l 1
 768 550 l 1
 764 564 l 1
 764 568 l 2
 764 570 765 572 771 573 c 1
 771 574 l 2
 771 575 771 576 770 576 c 0
 764 576 762 575 756 575 c 0
 751 575 748 576 743 576 c 1
 743 575 l 1
 743 573 l 1
 752 572 752 569 754 564 c 2
 761 531 l 2
 762 530 762 529 762 527 c 0
 762 524 761 523 754 522 c 1
 754 521 l 1
 754 521 754 519 755 519 c 0
 761 519 764 520 770 520 c 0
 776 520 777 519 782 519 c 1
 782 520 l 1
 782 522 l 1
 773 524 773 526 773 531 c 2
 769 546 l 1
 794 546 l 1
 797 531 l 2
 798 530 798 529 798 527 c 0
 798 524 797 523 791 522 c 1
 791 521 l 1
 791 521 791 519 792 519 c 0
 798 519 800 520 806 520 c 0
 812 520 814 519 819 519 c 2
 819 519 820 519 820 520 c 0
497 519 m 1
 497 520 l 2
 497 521 497 522 496 522 c 0
 488 524 488 526 486 531 c 2
 479 564 l 2
 478 565 478 566 478 568 c 0
 478 570 479 572 485 573 c 0
 486 573 486 573 486 574 c 0
 486 575 485 576 485 576 c 2
 481 576 466 575 460 575 c 0
 454 575 446 576 440 576 c 1
 441 574 441 572 441 569 c 0
 441 566 440 563 440 559 c 0
 440 558 441 558 442 558 c 0
 443 558 443 558 443 559 c 0
 444 569 448 572 457 572 c 2
 461 572 l 2
 464 572 466 571 467 566 c 2
 470 550 l 1
 466 550 l 2
 460 550 457 551 454 559 c 0
 454 560 453 560 452 560 c 2
 452 560 451 560 451 559 c 0
 452 554 453 553 454 548 c 0
 455 544 455 541 456 536 c 1
 458 536 l 1
 459 536 l 1
 458 545 461 547 467 547 c 2
 472 547 l 1
 475 531 l 2
 476 530 476 529 476 527 c 0
 476 524 474 523 468 522 c 2
 468 522 467 522 467 521 c 2
 467 521 468 519 469 519 c 0
 474 519 478 520 483 520 c 0
 489 520 491 519 497 519 c 1
203 520 m 0
 203 521 202 522 202 522 c 1
 193 524 193 526 191 531 c 2
 184 564 l 2
 183 565 183 566 183 568 c 0
 183 570 185 572 191 573 c 1
 191 574 l 1
 191 576 l 1
 185 576 183 575 178 575 c 0
 173 575 170 576 164 576 c 0
 152 576 144 573 144 563 c 0
 144 555 154 548 163 546 c 1
 155 530 l 2
 151 524 147 522 141 521 c 0
 140 521 140 520 140 519 c 0
 140 518 141 518 142 518 c 0
 146 518 152 519 160 519 c 1
 172 542 l 2
 173 545 175 545 177 545 c 2
 181 531 l 1
 181 527 l 2
 181 524 179 523 173 522 c 1
 173 521 l 1
 173 521 173 519 174 519 c 0
 179 519 183 520 189 520 c 0
 194 520 197 519 202 519 c 0
 203 519 203 519 203 520 c 0
399 521 m 0
 399 524 395 529 386 530 c 1
 377 542 383 578 357 578 c 0
 350 578 344 572 344 568 c 0
 344 565 346 563 349 563 c 0
 353 563 353 565 353 569 c 0
 353 572 354 575 358 575 c 0
 371 575 363 546 377 530 c 1
 363 530 365 517 356 517 c 0
 353 517 351 519 351 521 c 0
 351 524 353 524 353 526 c 0
 353 528 350 530 348 530 c 0
 344 530 343 527 343 524 c 0
 343 518 349 513 356 513 c 0
 374 513 372 525 383 525 c 1
 386 521 390 518 395 518 c 0
 397 518 399 519 399 521 c 0
826 476 m 1
 826 480 l 1
 141 480 l 1
 141 476 l 1
 826 476 l 1
825 378 m 1
 825 440 l 1
 678 440 l 1
 678 378 l 1
 714 378 l 1
 714 406 l 1
 725 406 l 1
 725 341 l 1
 711 341 l 1
 711 308 l 1
 792 308 l 1
 792 341 l 1
 778 341 l 1
 778 406 l 1
 789 406 l 1
 789 378 l 1
 825 378 l 1
644 406 m 1
 644 440 l 1
 563 440 l 1
 563 406 l 1
 574 406 l 1
 559 383 l 1
 544 406 l 1
 554 406 l 1
 554 440 l 1
 492 440 l 1
 492 406 l 1
 504 406 l 1
 541 360 l 1
 541 341 l 1
 527 341 l 1
 527 308 l 1
 608 308 l 1
 608 341 l 1
 593 341 l 1
 593 361 l 1
 630 406 l 1
 644 406 l 1
455 308 m 1
 455 341 l 1
 441 341 l 1
 441 406 l 1
 455 406 l 1
 455 440 l 1
 359 440 l 2
 330 440 312 422 312 400 c 0
 312 377 330 360 359 360 c 2
 389 360 l 1
 389 341 l 1
 374 341 l 1
 374 308 l 1
 455 308 l 1
277 308 m 1
 277 341 l 1
 263 341 l 1
 263 406 l 1
 277 406 l 1
 277 440 l 1
 136 440 l 1
 136 378 l 1
 177 378 l 1
 177 406 l 1
 210 406 l 1
 210 386 l 1
 186 386 l 1
 186 362 l 1
 210 362 l 1
 210 341 l 1
 177 341 l 1
 177 369 l 1
 136 369 l 1
 136 308 l 1
 277 308 l 1
826 272 m 1
 826 276 l 1
 141 276 l 1
 141 272 l 1
 826 272 l 1
725 192 m 0
 725 212 707 230 689 230 c 0
 680 230 668 224 668 208 c 0
 668 188 686 170 703 170 c 0
 712 170 725 176 725 192 c 0
413 171 m 1
 413 173 l 1
 413 173 413 175 412 175 c 0
 403 176 403 178 402 184 c 2
 394 216 l 1
 394 220 l 2
 394 223 395 224 401 225 c 1
 401 226 l 1
 401 228 l 1
 386 228 l 2
 380 228 375 229 371 229 c 0
 359 229 346 221 346 206 c 0
 346 185 364 172 381 172 c 2
 396 172 l 2
 401 172 409 172 413 171 c 1
202 215 m 2
 203 216 203 217 202 217 c 0
 198 224 194 230 184 230 c 0
 174 230 170 223 170 212 c 2
 170 207 l 1
 166 220 157 230 146 230 c 0
 140 230 137 224 137 218 c 2
 137 217 l 1
 140 217 l 1
 140 221 143 223 148 223 c 0
 161 223 167 209 172 190 c 2
 173 184 l 1
 173 180 l 2
 173 177 172 176 166 175 c 1
 166 173 l 1
 166 173 166 171 167 171 c 0
 173 171 176 172 182 172 c 0
 187 172 189 171 194 171 c 1
 194 171 195 172 195 173 c 2
 194 175 l 1
 185 176 185 178 184 184 c 2
 182 192 l 2
 180 198 179 204 179 209 c 0
 179 217 182 222 188 222 c 0
 194 222 197 218 200 215 c 2
 202 215 l 2
823 173 m 2
 823 173 822 175 821 175 c 0
 813 176 813 178 812 184 c 2
 803 216 l 1
 803 220 l 2
 803 223 805 224 811 225 c 2
 812 226 l 2
 812 227 811 228 810 228 c 2
 785 228 l 1
 766 228 l 1
 766 222 l 1
 766 211 l 2
 765 211 766 210 767 210 c 0
 768 210 768 211 768 211 c 1
 770 221 773 224 782 224 c 2
 786 224 l 2
 789 224 791 223 792 218 c 2
 796 203 l 1
 791 203 l 2
 785 203 782 203 779 212 c 1
 778 212 l 1
 776 212 l 1
 777 206 778 205 779 200 c 0
 780 197 780 193 782 188 c 1
 783 188 l 1
 784 188 l 1
 783 197 786 199 792 199 c 2
 797 199 l 1
 800 184 l 2
 800 182 801 181 801 180 c 0
 801 177 800 176 793 175 c 1
 793 173 l 1
 793 173 793 171 794 171 c 0
 800 171 803 172 809 172 c 0
 815 172 817 171 822 171 c 1
 822 171 823 172 823 173 c 2
620 225 m 0
 620 227 620 228 619 228 c 2
 604 228 l 1
 590 228 l 1
 590 227 l 1
 590 227 590 225 591 225 c 0
 600 224 600 222 601 216 c 2
 606 195 l 2
 607 191 608 188 608 185 c 0
 608 179 604 175 595 175 c 0
 584 175 578 185 575 197 c 2
 571 216 l 2
 571 218 570 219 570 220 c 0
 570 223 572 224 578 225 c 1
 578 227 l 1
 578 228 l 1
 566 228 l 1
 555 228 l 1
 555 227 l 1
 555 227 555 225 556 225 c 0
 565 224 566 222 567 216 c 2
 572 196 l 2
 575 185 580 170 598 170 c 0
 614 170 619 179 619 186 c 0
 619 189 618 191 617 194 c 2
 612 216 l 2
 612 218 611 219 611 220 c 0
 611 223 613 224 620 225 c 0
522 173 m 2
 521 175 l 1
 515 176 512 179 512 184 c 2
 505 216 l 2
 504 217 504 218 504 219 c 0
 504 223 506 224 513 225 c 0
 514 225 514 226 514 226 c 2
 514 227 513 228 512 228 c 2
 507 228 l 1
 498 228 l 1
 468 188 l 1
 464 216 l 2
 463 221 464 224 471 225 c 0
 472 225 472 226 472 226 c 2
 472 227 471 228 470 228 c 0
 467 228 464 227 459 227 c 0
 455 227 453 228 449 228 c 1
 449 227 l 1
 449 225 l 1
 456 224 458 221 459 216 c 2
 467 171 l 2
 467 170 467 170 468 170 c 2
 470 170 l 1
 501 214 l 1
 506 184 l 2
 507 179 506 176 500 175 c 0
 499 175 499 174 499 173 c 2
 500 171 l 2
 503 171 507 172 512 172 c 0
 516 172 518 171 521 171 c 0
 522 171 522 172 522 173 c 2
306 173 m 2
 305 175 l 1
 296 176 296 178 295 184 c 2
 287 216 l 1
 287 220 l 2
 287 223 288 224 294 225 c 0
 295 225 295 226 295 226 c 2
 295 227 294 228 293 228 c 2
 281 228 l 1
 267 228 l 2
 255 228 248 225 248 216 c 0
 248 208 257 200 266 199 c 1
 257 183 l 2
 254 177 250 175 245 173 c 0
 244 173 244 173 244 172 c 0
 244 170 245 170 245 170 c 1
 250 171 255 172 263 172 c 1
 275 194 l 2
 277 197 278 197 281 197 c 2
 284 184 l 1
 284 180 l 2
 284 177 283 176 277 175 c 0
 276 175 276 174 276 173 c 2
 277 171 l 1
 283 171 286 172 292 172 c 0
 298 172 300 171 305 171 c 1
 305 171 306 172 306 173 c 2
826 128 m 1
 826 132 l 1
 141 132 l 1
 141 128 l 1
 826 128 l 1
694 47 m 1
 694 48 l 1
 694 49 l 1
 689 49 688 51 688 54 c 2
 687 74 l 2
 687 77 688 79 693 79 c 1
 693 81 l 1
 693 82 l 2
 691 82 690 81 688 81 c 0
 686 81 685 82 683 82 c 2
 659 57 l 1
 659 74 l 2
 659 77 659 79 665 79 c 1
 665 81 l 1
 665 82 l 2
 662 82 660 81 657 81 c 0
 655 81 653 82 650 82 c 2
 650 81 l 1
 650 79 l 1
 656 79 656 77 656 74 c 2
 656 46 l 1
 658 46 l 1
 659 46 l 1
 684 73 l 1
 685 54 l 2
 685 51 685 49 680 49 c 0
 679 49 679 48 679 48 c 2
 679 47 679 47 680 47 c 2
 686 47 l 1
 694 47 l 1
632 46 m 1
 632 48 l 1
 632 49 l 1
 626 49 626 51 626 54 c 2
 626 74 l 2
 626 77 626 79 632 79 c 1
 632 81 l 1
 632 82 l 1
 628 82 620 81 616 81 c 0
 611 81 608 82 604 82 c 0
 603 78 602 76 602 72 c 2
 602 71 l 2
 603 71 603 71 603 72 c 0
 605 78 609 79 613 79 c 2
 615 79 l 2
 617 79 619 79 619 75 c 2
 619 66 l 1
 615 66 l 2
 612 66 610 66 609 71 c 1
 608 71 l 1
 608 64 l 1
 608 58 l 1
 609 58 l 1
 610 64 612 64 615 64 c 2
 619 64 l 1
 619 53 l 2
 619 50 617 49 615 49 c 2
 613 49 l 2
 608 49 603 52 601 58 c 1
 600 58 l 2
 599 58 599 58 599 57 c 0
 601 54 602 51 603 46 c 1
 607 47 611 47 615 47 c 0
 620 47 628 47 632 46 c 1
582 81 m 0
 578 82 578 81 575 81 c 0
 572 81 571 82 567 82 c 1
 567 81 l 1
 567 79 l 2
 569 79 569 79 569 76 c 2
 569 74 l 1
 560 55 l 1
 554 64 l 1
 559 73 l 2
 560 77 561 79 565 79 c 2
 565 79 566 80 566 81 c 2
 565 82 l 2
 561 82 562 81 558 81 c 0
 555 81 555 82 551 82 c 0
 549 82 548 81 546 81 c 0
 544 81 542 82 539 82 c 2
 539 81 l 2
 539 80 539 79 540 79 c 0
 543 79 545 77 547 73 c 2
 550 68 l 1
 543 55 l 1
 535 73 l 1
 535 76 l 2
 535 79 535 79 537 79 c 0
 538 79 538 80 538 81 c 2
 538 81 538 82 537 82 c 0
 535 82 534 81 531 81 c 0
 529 81 528 82 526 82 c 2
 526 81 l 1
 526 79 l 1
 530 79 530 77 532 73 c 2
 544 46 l 1
 545 46 l 1
 546 46 l 1
 553 61 l 1
 562 46 l 1
 563 46 l 1
 575 73 l 2
 578 78 578 79 581 79 c 0
 582 79 582 80 582 81 c 0
479 79 m 1
 479 81 l 2
 476 82 475 81 471 81 c 0
 467 81 466 82 463 82 c 0
 462 82 462 81 462 81 c 2
 462 80 462 79 463 79 c 0
 464 79 465 79 465 77 c 0
 465 76 465 75 464 74 c 2
 458 65 l 1
 452 74 l 2
 451 75 451 76 451 76 c 2
 451 79 452 79 455 79 c 2
 455 81 l 1
 455 82 l 2
 452 82 450 81 447 81 c 0
 445 81 443 82 441 82 c 2
 441 81 l 1
 441 79 l 1
 445 79 446 78 449 74 c 2
 457 62 l 1
 457 54 l 2
 457 51 457 49 452 49 c 1
 452 48 l 1
 452 46 l 2
 455 46 456 47 461 47 c 0
 464 47 466 46 469 46 c 0
 470 46 470 47 470 48 c 2
 470 48 470 49 469 49 c 0
 464 49 464 51 464 54 c 2
 464 62 l 1
 472 74 l 2
 474 78 475 79 479 79 c 1
424 64 m 0
 424 74 416 82 404 82 c 0
 392 82 385 74 385 64 c 0
 385 54 392 46 404 46 c 0
 416 46 424 54 424 64 c 0
364 48 m 2
 364 48 364 49 363 49 c 0
 358 49 358 51 358 54 c 2
 358 74 l 2
 358 77 358 79 363 79 c 0
 364 79 364 80 364 81 c 2
 364 81 364 82 363 82 c 0
 360 82 358 81 354 81 c 0
 350 81 349 82 345 82 c 0
 338 82 333 78 333 73 c 0
 333 69 336 66 341 64 c 1
 333 53 l 2
 332 51 331 49 326 49 c 1
 326 48 l 1
 326 47 l 1
 332 47 l 1
 338 47 l 1
 344 58 l 2
 347 62 347 63 351 63 c 1
 351 54 l 2
 351 51 350 49 346 49 c 0
 345 49 345 48 345 48 c 2
 345 47 345 46 346 46 c 0
 349 46 350 47 354 47 c 0
 359 47 360 46 363 46 c 0
 364 46 364 47 364 48 c 2
308 46 m 2
 308 48 l 1
 308 49 l 1
 303 49 302 51 302 54 c 2
 302 74 l 2
 302 77 303 79 308 79 c 1
 308 81 l 1
 308 82 l 2
 305 82 303 81 299 81 c 0
 295 81 294 82 290 82 c 1
 290 81 l 1
 290 79 l 1
 296 79 296 77 296 74 c 2
 296 64 l 2
 294 64 293 65 292 67 c 2
 284 75 l 2
 283 76 282 77 282 78 c 0
 282 79 283 79 285 79 c 2
 285 81 l 1
 285 82 l 2
 282 82 281 81 278 81 c 0
 275 81 274 82 272 82 c 2
 272 81 l 1
 272 79 l 1
 277 79 278 77 280 75 c 2
 289 66 l 1
 276 53 l 2
 274 51 272 49 269 49 c 2
 268 48 l 2
 268 47 268 46 269 46 c 0
 272 46 273 47 277 47 c 0
 280 47 283 46 287 46 c 1
 287 48 l 1
 287 49 l 2
 284 49 284 49 284 51 c 0
 284 52 284 52 285 53 c 2
 292 61 l 2
 293 62 294 63 296 63 c 2
 296 54 l 2
 296 51 296 49 290 49 c 1
 290 48 l 1
 290 46 l 1
 294 46 295 47 299 47 c 0
 303 47 305 46 308 46 c 2
523 -81 m 0
 523 -77 521 -75 516 -75 c 2
 513 -75 l 1
 513 -78 l 1
 513 -87 l 1
 517 -87 l 2
 521 -87 523 -84 523 -81 c 0
605 -82 m 0
 605 -78 603 -76 598 -76 c 2
 594 -76 l 1
 594 -78 l 1
 594 -88 l 1
 596 -88 l 2
 602 -88 605 -86 605 -82 c 0
393 -82 m 0
 393 -78 391 -76 386 -76 c 2
 382 -76 l 1
 382 -78 l 1
 382 -88 l 1
 385 -88 l 2
 390 -88 393 -86 393 -82 c 0
562 -92 m 1
 557 -81 l 1
 552 -92 l 1
 562 -92 l 1
798 -88 m 0
 798 -79 794 -75 788 -75 c 0
 782 -75 778 -80 778 -87 c 0
 778 -95 782 -100 788 -100 c 0
 794 -100 798 -95 798 -88 c 0
439 -88 m 0
 439 -79 435 -75 429 -75 c 0
 423 -75 419 -80 419 -87 c 0
 419 -95 423 -100 429 -100 c 0
 436 -100 439 -95 439 -88 c 0
176 548 m 1
 171 548 l 2
 159 548 156 557 156 563 c 0
 156 570 158 572 164 572 c 0
 170 572 171 571 173 566 c 2
 176 548 l 1
565 553 m 1
 563 550 560 549 558 549 c 0
 555 549 554 550 554 551 c 0
 554 553 555 554 558 554 c 0
 560 554 563 554 565 553 c 1
270 553 m 1
 268 550 266 549 263 549 c 0
 261 549 260 550 260 551 c 0
 260 553 260 554 263 554 c 0
 266 554 268 554 270 553 c 1
683 535 m 0
 683 525 680 521 671 521 c 0
 659 521 647 540 647 560 c 0
 647 570 650 575 659 575 c 0
 671 575 683 556 683 535 c 0
389 384 m 1
 378 384 l 2
 369 384 365 389 365 395 c 0
 365 401 369 406 378 406 c 2
 389 406 l 1
 389 384 l 1
280 201 m 1
 275 201 l 2
 263 201 260 209 260 215 c 0
 260 222 262 225 268 225 c 0
 273 225 275 224 275 218 c 2
 280 201 l 1
713 188 m 0
 713 178 710 173 703 173 c 0
 689 173 679 192 679 213 c 0
 679 223 682 227 689 227 c 0
 703 227 713 208 713 188 c 0
392 182 m 2
 392 176 391 176 388 176 c 2
 383 176 l 2
 368 176 357 191 357 207 c 0
 357 218 362 225 371 225 c 2
 377 224 l 2
 380 224 381 224 383 218 c 2
 392 182 l 2
554 77 m 0
 554 76 553 74 551 71 c 1
 550 73 549 76 549 76 c 2
 549 79 550 79 551 79 c 0
 553 79 554 79 554 77 c 0
351 65 m 1
 348 65 l 2
 342 65 340 67 340 73 c 0
 340 76 342 79 347 79 c 0
 350 79 351 79 351 75 c 2
 351 65 l 1
416 64 m 0
 416 55 413 48 404 48 c 0
 396 48 392 55 392 64 c 0
 392 73 396 81 404 81 c 0
 413 81 416 73 416 64 c 0
EndSplineSet
Validated: 129
EndChar

StartChar: H22073
Encoding: 9633 9633 209
Width: 531
Flags: W
HStem: 0 50 503 50
VStem: 24 51<49 454 49 503 49 503> 507 51
LayerCount: 2
Fore
SplineSet
507 0 m 1
 24 0 l 1
 24 503 l 1
 507 503 l 1
 507 0 l 1
456 49 m 1
 456 454 l 1
 75 454 l 1
 75 49 l 1
 456 49 l 1
EndSplineSet
Validated: 1
EndChar

StartChar: filledbox
Encoding: 9632 9632 210
Width: 518
Flags: W
HStem: 0 20 471 20G<24 494 494 494>
LayerCount: 2
Fore
SplineSet
494 0 m 1
 24 0 l 1
 24 491 l 1
 494 491 l 1
 494 0 l 1
EndSplineSet
Validated: 1
EndChar

StartChar: uni25C2
Encoding: 9666 9666 211
Width: 328
Flags: W
VStem: 50 228
LayerCount: 2
Fore
SplineSet
276 128 m 1
 50 229 l 1
 50 242 l 1
 276 342 l 1
 276 128 l 1
EndSplineSet
Validated: 1
EndChar

StartChar: triaglf
Encoding: 9668 9668 212
Width: 328
Flags: W
VStem: 50 228
LayerCount: 2
Fore
SplineSet
276 128 m 1
 50 229 l 1
 50 242 l 1
 276 342 l 1
 276 128 l 1
EndSplineSet
Validated: 1
EndChar

StartChar: triagrt
Encoding: 9658 9658 213
Width: 328
Flags: W
VStem: 59 228
LayerCount: 2
Fore
SplineSet
285 229 m 1
 59 128 l 1
 59 342 l 1
 285 242 l 1
 285 229 l 1
EndSplineSet
Validated: 1
EndChar

StartChar: uni25B8
Encoding: 9656 9656 214
Width: 328
Flags: W
VStem: 59 228
LayerCount: 2
Fore
SplineSet
285 229 m 1
 59 128 l 1
 59 342 l 1
 285 242 l 1
 285 229 l 1
EndSplineSet
Validated: 1
EndChar

StartChar: uni2117
Encoding: 8471 8471 215
Width: 543
Flags: W
HStem: 54 36 285 36 435 36 571 36
VStem: 17 42 205 42 366 42 526 42
LayerCount: 2
Fore
SplineSet
526 312 m 0
 526 170 417 54 271 54 c 0
 125 54 17 170 17 312 c 0
 17 455 125 571 271 571 c 0
 417 571 526 455 526 312 c 0
486 312 m 0
 486 435 398 533 271 533 c 0
 145 533 57 435 57 312 c 0
 57 190 145 91 271 91 c 0
 398 91 486 190 486 312 c 0
366 349 m 2
 366 313 348 285 297 285 c 2
 248 285 l 1
 248 193 l 1
 205 193 l 1
 205 435 l 1
 297 435 l 2
 348 435 366 409 366 373 c 2
 366 349 l 2
321 348 m 2
 321 373 l 2
 321 391 314 402 293 402 c 2
 248 402 l 1
 248 320 l 1
 293 320 l 2
 314 320 321 332 321 348 c 2
EndSplineSet
Validated: 1
EndChar

StartChar: guilsinglleft
Encoding: 8249 8249 216
Width: 177
Flags: W
HStem: 0 20
LayerCount: 2
Fore
SplineSet
152 0 m 1
 118 0 l 1
 106 81 76 135 21 165 c 1
 21 222 l 1
 76 252 106 306 118 387 c 1
 152 387 l 1
 152 296 139 231 101 193 c 1
 139 156 152 91 152 0 c 1
EndSplineSet
Validated: 1
EndChar

StartChar: guilsinglright
Encoding: 8250 8250 217
Width: 177
Flags: W
HStem: 0 20
LayerCount: 2
Fore
SplineSet
156 165 m 1
 100 135 71 81 59 0 c 1
 25 0 l 1
 25 91 38 156 76 193 c 1
 38 231 25 296 25 387 c 1
 59 387 l 1
 71 306 100 252 156 222 c 1
 156 165 l 1
EndSplineSet
Validated: 1
EndChar
